<?xml version="1.0" encoding="utf-8"?>
<!-- Generator: Adobe Illustrator 25.3.1, SVG Export Plug-In . SVG Version: 6.00 Build 0)  -->
<svg version="1.1" id="Layer_1" xmlns="http://www.w3.org/2000/svg" xmlns:xlink="http://www.w3.org/1999/xlink" x="0px" y="0px"
	 viewBox="0 0 74 28" style="enable-background:new 0 0 74 28;" xml:space="preserve">
<style type="text/css">
	.st0{fill:#FF4564;}
	.st1{fill:#FEFEFE;}
	.st2{fill:#FE4664;}
	.st3{fill:#382CDB;}
	.st4{fill:#E8D758;}
	.st5{fill:#2A7273;}
	.st6{fill:#FCFCFC;}
	.st7{fill:#6057E2;}
	.st8{fill:#5A50E1;}
	.st9{fill:#635AE2;}
	.st10{fill:#6157E2;}
	.st11{fill:#D9D7F7;}
	.st12{fill:#6056E2;}
	.st13{fill:#F6F0C4;}
	.st14{fill:#CFCCF5;}
	.st15{fill:#9B95EC;}
	.st16{fill:#C5C2F4;}
	.st17{fill:#D9D7F8;}
	.st18{fill:#CDCBF5;}
	.st19{fill:#D6D4F7;}
	.st20{fill:#9C97ED;}
	.st21{fill:#D3D0F6;}
	.st22{fill:#9DBEBE;}
	.st23{fill:#F1E79A;}
	.st24{fill:#F0E594;}
	.st25{fill:#FEA8B6;}
	.st26{fill:#B5B1F1;}
	.st27{fill:#CECCF5;}
	.st28{fill:#918AEB;}
</style>
<path class="st0" d="M19,11h-5V5c0-0.3-0.2-0.6-0.4-0.8c-0.4-0.3-1.1-0.2-1.4,0.2l-8,11C4.1,15.6,4,15.8,4,16c0,0.6,0.4,1,1,1h5v6
	c0,0.6,0.4,1,1,1c0.3,0,0.6-0.2,0.8-0.4l8-11c0.1-0.2,0.2-0.4,0.2-0.6C20,11.4,19.6,11,19,11z"/>
<g>
	<g>
		<path class="st1" d="M36.99,28c-11.62,0-23.25,0-34.87,0C2.02,28,2,27.98,2,27.88C2,18.63,2,9.37,2,0.12C2,0.02,2.02,0,2.12,0
			c23.25,0,46.51,0,69.76,0C71.98,0,72,0.02,72,0.12c0,9.25,0,18.51,0,27.76c0,0.1-0.02,0.12-0.12,0.12C60.25,28,48.62,28,36.99,28z
			"/>
		<path class="st2" d="M17.16,0.73c0.01,0.01,0.01,0.01,0.02,0c0.2-0.03,0.4-0.03,0.6,0c0.01,0,0.03,0,0.04,0
			c0.14,0.02,0.28,0,0.42,0.01c0.05,0,0.09-0.02,0.13,0.01l0,0c0.1,0.04,0.21-0.01,0.31,0.03l0,0c0.08,0.03,0.18-0.01,0.26,0.03l0,0
			c0.07,0.03,0.14-0.01,0.21,0.03l0,0c0.07,0.03,0.14-0.01,0.21,0.03l0,0c0.05,0.03,0.11-0.01,0.16,0.03c0,0.01,0.01,0.01,0.02,0
			c0.68,0.11,1.35,0.27,2.01,0.49c0.65,0.21,1.27,0.47,1.88,0.79c0.18,0.09,0.37,0.18,0.53,0.3l0,0c0.08,0.05,0.16,0.08,0.23,0.13
			l0,0c0.04,0.02,0.07,0.05,0.11,0.08c0.26,0.18,0.52,0.36,0.77,0.54c0.04,0.02,0.08,0.02,0.1,0.06c0.02,0.01,0.03,0.03,0.05,0.04
			c0.04,0.02,0.08,0.05,0.1,0.08c0.02,0.01,0.03,0.03,0.05,0.04c0.04,0.02,0.08,0.05,0.1,0.09c0.02,0.01,0.03,0.03,0.05,0.04
			c0.06,0.03,0.12,0.06,0.16,0.11c0.03,0.04,0.06,0.07,0.1,0.09c0.08,0.05,0.14,0.13,0.21,0.19c-0.02,0.07-0.1,0.1-0.13,0.17
			c-0.17,0.24-0.38,0.42-0.58,0.63c-0.06,0.06-0.12,0.11-0.17,0.17l0,0C25.03,4.97,25,5.11,24.88,5c-0.03-0.03-0.07-0.07-0.1-0.1
			c-0.08-0.05-0.13-0.15-0.23-0.18c-0.01-0.01-0.02-0.02-0.03-0.03c-0.05-0.03-0.08-0.07-0.13-0.1c-0.01-0.01-0.02-0.02-0.03-0.02
			c-0.05-0.03-0.08-0.07-0.13-0.1c-0.4-0.34-0.83-0.62-1.29-0.87c-0.39-0.22-0.78-0.41-1.19-0.57c-0.6-0.24-1.22-0.45-1.86-0.57
			c-0.28-0.06-0.56-0.11-0.84-0.15c-0.04-0.02-0.1,0-0.14-0.02c-0.01,0-0.03,0-0.04,0c-0.06-0.03-0.13,0.01-0.19-0.02
			c-0.02,0-0.05,0-0.07,0c-0.06-0.03-0.13,0.01-0.19-0.02c-0.03,0-0.06,0-0.1,0c-0.1-0.03-0.2,0.01-0.29-0.02
			c-0.08-0.01-0.17-0.02-0.25,0c-0.2-0.02-0.41-0.02-0.61,0c-0.07,0-0.15,0-0.22,0c-0.1,0.03-0.21-0.01-0.32,0.02
			c-0.02,0-0.05,0-0.07,0c-0.07,0.03-0.14-0.01-0.21,0.02c-0.03,0-0.07,0-0.1,0c-0.04,0.02-0.09,0-0.14,0.02
			c-0.08,0.01-0.17,0.02-0.25,0.03c-0.04,0.02-0.09,0-0.14,0.02c-0.18,0.03-0.36,0.05-0.54,0.09c-0.24,0.05-0.48,0.11-0.71,0.17
			c-0.33,0.09-0.66,0.21-0.98,0.32c-0.39,0.14-0.75,0.32-1.12,0.49c-0.24,0.11-0.46,0.25-0.69,0.38c-0.28,0.17-0.56,0.34-0.81,0.56
			c-0.04,0.04-0.09,0.08-0.13,0.12c-0.03,0.04-0.06,0.07-0.11,0.09c-0.01,0.01-0.02,0.01-0.02,0.02c-0.04,0.05-0.09,0.1-0.16,0.11
			c-0.02,0.01-0.03,0.03-0.05,0.04c-0.05,0.05-0.09,0.1-0.16,0.14c-0.04,0.02-0.07,0.06-0.1,0.09c-0.2,0.17-0.39,0.36-0.58,0.55
			C9.53,5.54,9.46,5.56,9.44,5.62C9.41,5.67,9.37,5.71,9.32,5.75C9.3,5.78,9.28,5.8,9.25,5.83c-0.02,0.04-0.05,0.08-0.09,0.1
			C8.99,6.11,8.84,6.31,8.69,6.51C8.32,7,8,7.51,7.72,8.07C7.49,8.53,7.31,9.01,7.14,9.5c-0.2,0.56-0.29,1.14-0.38,1.73
			c-0.01,0.06,0,0.13,0,0.19c-0.02,0.05,0,0.11-0.02,0.16c0,0.05,0,0.1-0.01,0.15c-0.03,0.07,0,0.14-0.02,0.21
			C6.7,12.07,6.69,12.2,6.7,12.33c-0.02,0.12-0.02,0.23,0,0.35c0,0.13,0,0.25,0.01,0.38c0.02,0.07-0.01,0.14,0.02,0.21
			c0,0.04,0,0.08,0.01,0.12c0.02,0.05-0.01,0.11,0.02,0.16c0,0.03,0,0.06,0.01,0.1c0.02,0.04,0,0.09,0.02,0.13
			c0.05,0.53,0.15,1.04,0.31,1.54c0.02,0.02,0.02,0.06,0.05,0.08c0.06,0.28,0.16,0.56,0.27,0.82c0.17,0.42,0.37,0.84,0.61,1.23
			c0.22,0.35,0.43,0.71,0.7,1.04c0.1,0.11,0.16,0.25,0.26,0.36c0.34,0.39,0.69,0.78,1.09,1.11c0.06,0.05,0.1,0.12,0.17,0.16
			c0.04,0.03,0.08,0.05,0.1,0.09c0.03,0.04,0.06,0.07,0.1,0.09c0.04,0.03,0.1,0.04,0.13,0.09c0.17,0.17,0.37,0.29,0.56,0.43
			c0.1,0.07,0.21,0.14,0.31,0.21c0.04,0.02,0.08,0.02,0.11,0.06c0.29,0.21,0.61,0.38,0.94,0.53c0.01,0.01,0.02,0,0.04,0.01
			c0.2,0.1,0.4,0.19,0.6,0.28l0,0c0.06,0.02,0.12,0.05,0.18,0.08l0,0c0.05,0.02,0.11,0.03,0.16,0.05l0,0
			c0.04,0.02,0.09,0.02,0.13,0.05l0,0c0.58,0.21,1.17,0.37,1.78,0.49c0.87,0.17,1.74,0.22,2.62,0.19c0.4-0.02,0.8-0.06,1.2-0.12
			c0.61-0.09,1.21-0.23,1.79-0.41c0.44-0.14,0.87-0.31,1.29-0.5c0.08-0.04,0.17-0.09,0.25-0.13c0.07-0.04,0.14-0.07,0.22-0.1
			c0.12-0.07,0.23-0.14,0.35-0.21c0.03-0.02,0.07-0.03,0.11-0.05l0,0c0.04-0.04,0.09-0.05,0.13-0.08c0.08-0.05,0.15-0.11,0.23-0.16
			c0.03-0.02,0.07-0.02,0.1-0.05c0.14-0.1,0.28-0.21,0.42-0.31c0.05-0.01,0.09-0.04,0.13-0.08c0.01-0.01,0.02-0.02,0.03-0.03
			c0.04-0.02,0.07-0.05,0.1-0.08c0.02-0.02,0.04-0.03,0.06-0.05c0.03-0.02,0.07-0.05,0.1-0.08c0.03-0.03,0.05-0.05,0.08-0.08
			c0.08-0.02,0.12-0.09,0.18-0.13c0.18-0.18,0.36-0.36,0.56-0.51c0.07,0.03,0.11,0.09,0.16,0.14c0.05,0.08,0.14,0.11,0.2,0.17
			c0.08,0.04,0.13,0.11,0.19,0.17c0.09,0.1,0.21,0.18,0.31,0.28c0.02,0.02,0.05,0.05,0.07,0.07c0.01,0,0.02,0,0.02,0.01
			c0.18,0.13,0.18,0.14,0.03,0.29c-0.17,0.17-0.35,0.34-0.54,0.49c-0.01,0.01-0.01,0.01-0.02,0.02c-0.07,0.08-0.14,0.14-0.23,0.19
			l0,0c-0.05,0.04-0.09,0.1-0.16,0.13l0,0c-0.06,0.04-0.09,0.11-0.16,0.13c-0.01,0.01-0.03,0.02-0.04,0.03
			c-0.02,0.02-0.06,0.03-0.08,0.05c-0.15,0.11-0.29,0.22-0.44,0.34c-0.04,0.02-0.08,0.03-0.11,0.05c-0.13,0.09-0.25,0.17-0.38,0.26
			c-0.04,0.01-0.07,0.03-0.11,0.05c-0.23,0.16-0.5,0.27-0.74,0.42c-0.05,0.03-0.1,0.06-0.17,0.07c-0.06,0.03-0.13,0.07-0.19,0.1
			c-0.04,0.03-0.09,0.03-0.13,0.05c-1.22,0.54-2.49,0.89-3.82,1.04c-0.04,0.02-0.09-0.01-0.13,0.02c-0.04,0-0.08,0-0.12,0.01
			c-0.05,0.02-0.11-0.01-0.16,0.02c-0.06,0-0.12,0-0.17,0.01c-0.08,0.02-0.16-0.01-0.24,0.02c-0.1,0-0.2,0-0.3,0.01
			c-0.22,0.01-0.45,0.01-0.67,0c-0.1,0-0.2,0-0.3-0.01c-0.08-0.03-0.16,0-0.24-0.02c-0.06,0-0.12,0-0.17-0.01
			c-0.05-0.02-0.11,0-0.16-0.02c-0.04,0-0.08,0-0.12-0.01c-0.04-0.02-0.09,0-0.13-0.02c-0.39-0.02-0.77-0.09-1.14-0.17
			c-0.49-0.1-0.97-0.23-1.44-0.39c-0.32-0.11-0.63-0.23-0.94-0.35c-0.38-0.15-0.75-0.34-1.12-0.53c-0.26-0.14-0.52-0.29-0.77-0.45
			c-0.32-0.21-0.64-0.41-0.93-0.67c-0.03-0.03-0.06-0.05-0.1-0.08c-0.12-0.07-0.22-0.16-0.32-0.26c-0.03-0.03-0.06-0.05-0.1-0.08
			c-0.12-0.11-0.26-0.21-0.37-0.33c-0.03-0.02-0.05-0.05-0.07-0.07C8.33,20.41,7.96,20,7.63,19.56c-0.02-0.03-0.05-0.05-0.08-0.08
			c-0.13-0.18-0.25-0.36-0.38-0.53c-0.21-0.26-0.34-0.57-0.51-0.86c-0.41-0.69-0.72-1.42-0.97-2.18c-0.15-0.44-0.25-0.89-0.35-1.34
			c-0.05-0.22-0.06-0.45-0.09-0.67c-0.02-0.04,0-0.09-0.02-0.13c0-0.03,0-0.07-0.01-0.1c-0.02-0.05,0.01-0.11-0.02-0.16
			c0-0.05,0-0.1-0.01-0.15c-0.02-0.07,0.01-0.14-0.02-0.21c0-0.1,0-0.2-0.01-0.3c-0.03-0.24-0.04-0.48,0-0.72
			c0-0.09,0-0.19,0.01-0.28c0.03-0.07,0-0.14,0.02-0.21c0-0.06,0-0.12,0.01-0.18c0.03-0.05,0-0.11,0.02-0.16
			c0.03-0.48,0.13-0.95,0.22-1.42C5.48,9.68,5.52,9.47,5.6,9.27C5.77,8.85,5.87,8.4,6.07,7.99C6.24,7.66,6.37,7.31,6.57,7
			c0.16-0.26,0.3-0.54,0.48-0.79C7.35,5.79,7.65,5.36,8,4.98C8.19,4.77,8.35,4.52,8.6,4.36C8.65,4.33,8.65,4.26,8.7,4.22
			c0.25-0.22,0.49-0.46,0.75-0.67c0.3-0.24,0.63-0.47,0.95-0.69c0.11-0.07,0.22-0.13,0.33-0.2c0.03-0.05,0.09-0.07,0.14-0.1
			c0.02-0.02,0.05-0.04,0.07-0.06c0.05-0.03,0.11-0.04,0.16-0.07l0,0c0.04-0.04,0.09-0.05,0.13-0.08l0,0
			c0.04-0.04,0.09-0.05,0.13-0.08l0,0c0.06-0.06,0.14-0.07,0.22-0.1c0.01-0.01,0.03-0.02,0.04-0.03c0.26-0.14,0.53-0.26,0.8-0.38
			l0,0c0.13-0.05,0.26-0.11,0.39-0.16l0,0c0.09-0.05,0.19-0.07,0.29-0.1l0,0c0.06-0.04,0.14-0.05,0.21-0.08l0,0
			c0.36-0.13,0.73-0.23,1.1-0.33c0.3-0.07,0.6-0.13,0.89-0.19l0,0c0.06-0.04,0.13,0,0.18-0.03l0,0c0.06-0.04,0.12,0,0.18-0.03l0,0
			c0.06-0.04,0.13,0.01,0.18-0.03l0,0c0.07-0.04,0.16,0.01,0.23-0.03l0,0c0.07-0.04,0.16,0.01,0.23-0.03l0,0
			c0.11-0.04,0.23,0.01,0.34-0.03l0,0c0.13-0.03,0.27-0.01,0.4-0.02C17.07,0.73,17.12,0.75,17.16,0.73z"/>
		<path class="st2" d="M7.68,12.1c0-0.08,0-0.15,0.01-0.23c0.03-0.06,0-0.13,0.02-0.19c0-0.04,0-0.08,0.01-0.12
			c0.03-0.05,0-0.11,0.02-0.16C7.77,10.91,7.86,10.43,8,9.96c0.15-0.46,0.29-0.94,0.52-1.37c0.14-0.27,0.26-0.55,0.43-0.8
			c0.2-0.28,0.35-0.59,0.59-0.84C9.69,6.8,9.81,6.63,9.93,6.46c0.05-0.07,0.12-0.1,0.17-0.17c0.03-0.03,0.05-0.06,0.08-0.1
			c0.37-0.42,0.79-0.77,1.23-1.11c0.35-0.27,0.74-0.49,1.12-0.73c0.56-0.36,1.17-0.59,1.8-0.8C14.8,3.4,15.28,3.3,15.76,3.2
			c0.04-0.02,0.09,0.01,0.13-0.02c0.14-0.02,0.27-0.04,0.41-0.06c0.05-0.02,0.11,0.01,0.16-0.02c0.03,0,0.07,0,0.1-0.01
			c0.05-0.02,0.11,0.01,0.16-0.02c0.07,0,0.13,0,0.2-0.01c0.08-0.02,0.16,0.01,0.24-0.02c0.26,0,0.52,0,0.78,0
			c0.09,0.03,0.18-0.01,0.27,0.02c0.06,0,0.12,0,0.18,0.01c0.05,0.03,0.11,0,0.16,0.02c0.03,0,0.07,0,0.1,0.01
			c0.05,0.03,0.11,0,0.16,0.02c0.35,0.06,0.7,0.11,1.04,0.19c0.59,0.13,1.17,0.31,1.72,0.55c0.27,0.12,0.53,0.23,0.78,0.37
			c0.23,0.13,0.44,0.29,0.67,0.41c0.21,0.12,0.39,0.28,0.6,0.39c0.04,0.02,0.08,0.05,0.11,0.09c0.01,0.01,0.02,0.01,0.02,0.02
			c0.04,0.02,0.08,0.05,0.11,0.09c0.02,0.01,0.03,0.03,0.05,0.04c0.05,0.03,0.09,0.07,0.13,0.11c0.02,0.03,0.04,0.05,0.07,0.04
			c0.07,0.04,0.13,0.11,0.18,0.17c0.02,0.02,0.05,0.04,0.07,0.07c0.02,0.06-0.03,0.1-0.06,0.13c-0.12,0.14-0.28,0.24-0.4,0.38
			c-0.01,0.01-0.01,0.01-0.02,0.02c-0.06,0.11-0.15,0.18-0.24,0.26c-0.09,0.07-0.17,0.16-0.26,0.24c-0.01,0-0.02,0.01-0.02,0.02
			c-0.02,0.04-0.05,0.02-0.07,0c-0.04-0.03-0.07-0.07-0.11-0.1c-0.04-0.03-0.07-0.05-0.11-0.08c-0.04-0.03-0.08-0.07-0.13-0.1
			c-0.02-0.02-0.04-0.03-0.05-0.05c-0.03-0.03-0.07-0.05-0.1-0.08c-0.06-0.05-0.12-0.09-0.18-0.13c-0.06-0.06-0.14-0.1-0.2-0.16l0,0
			c-0.06-0.04-0.13-0.08-0.18-0.13l0,0c-0.11-0.05-0.21-0.11-0.31-0.18l0,0c-0.04-0.03-0.09-0.04-0.13-0.08l0,0
			c-0.06-0.05-0.15-0.05-0.21-0.11l0,0c-0.57-0.3-1.17-0.53-1.79-0.7c-0.39-0.1-0.78-0.18-1.18-0.22c-0.39-0.04-0.79-0.08-1.18-0.07
			c-0.53,0.01-1.06,0.06-1.59,0.17c-0.53,0.1-1.04,0.26-1.55,0.45c-0.07,0.03-0.14,0.07-0.21,0.09c-0.01,0.01-0.03,0.02-0.04,0.03
			c-0.15,0.06-0.3,0.13-0.45,0.21c-0.01,0.01-0.03,0.02-0.04,0.03c-0.06,0.05-0.14,0.07-0.21,0.1l0,0
			c-0.04,0.04-0.09,0.05-0.13,0.08l0,0c-0.04,0.04-0.09,0.06-0.14,0.08c-0.05,0.03-0.1,0.07-0.15,0.1
			c-0.04,0.02-0.08,0.04-0.11,0.05c-0.05,0.04-0.1,0.07-0.14,0.11c-0.04,0.02-0.07,0.06-0.11,0.07l0,0
			c-0.03,0.03-0.07,0.06-0.1,0.08c-0.14,0.06-0.24,0.18-0.36,0.27c-0.03,0.04-0.07,0.06-0.1,0.09c-0.08,0.04-0.15,0.09-0.21,0.17
			c-0.1,0.11-0.21,0.21-0.32,0.32c-0.16,0.08-0.24,0.24-0.36,0.36c-0.26,0.26-0.46,0.58-0.68,0.88c-0.1,0.13-0.18,0.29-0.26,0.44
			C9.94,9.11,9.76,9.55,9.6,10c-0.16,0.44-0.25,0.89-0.34,1.34c-0.01,0.07,0,0.14-0.01,0.21c-0.02,0.04,0,0.09-0.02,0.14
			c0,0.04,0,0.08-0.01,0.12c-0.02,0.05,0,0.11-0.02,0.16c0,0.09,0,0.18-0.01,0.28c-0.02,0.17-0.02,0.34,0,0.51
			c0,0.08,0,0.17,0.01,0.25c0.02,0.06-0.01,0.13,0.02,0.19c0,0.04,0,0.08,0.01,0.12c0.02,0.04,0,0.09,0.02,0.13
			c0.03,0.44,0.12,0.87,0.26,1.28c0.02,0.02,0.02,0.06,0.05,0.08c0.05,0.26,0.15,0.49,0.25,0.73c0.16,0.39,0.37,0.76,0.6,1.11
			c0.23,0.36,0.5,0.7,0.78,1.02c0.22,0.24,0.45,0.47,0.69,0.69c0.47,0.43,0.99,0.79,1.55,1.09c0.43,0.23,0.89,0.41,1.35,0.59
			c0.16,0.06,0.33,0.12,0.5,0.14c0.04,0.03,0.1-0.02,0.13,0.04c0.07,0.02,0.13,0.05,0.2,0.04c0.09,0.02,0.18,0.03,0.26,0.05l0,0
			c0.04,0.03,0.09-0.01,0.13,0.03l0,0c0.05,0.03,0.11-0.01,0.16,0.03l0,0c0.06,0.03,0.13-0.01,0.18,0.03c0.01,0.01,0.01,0.01,0.02,0
			c0.06,0.03,0.13-0.01,0.19,0.03l0,0c0.09,0.04,0.19-0.01,0.29,0.03l0,0c0.1,0.03,0.21,0,0.32,0.01c0.04,0,0.09-0.01,0.12,0.02l0,0
			c0.18,0.02,0.36,0.02,0.55,0l0,0c0.11-0.03,0.22-0.01,0.33-0.02c0.05,0,0.09,0.01,0.14-0.01l0,0c0.08-0.04,0.18,0.01,0.26-0.03
			l0,0c0.07-0.04,0.16,0.01,0.23-0.03l0,0c0.05-0.04,0.11,0,0.16-0.03l0,0c0.05-0.04,0.11,0,0.16-0.03l0,0
			c0.04-0.04,0.09,0,0.13-0.03l0,0c0.05-0.04,0.11,0,0.16-0.03c0.04,0.01,0.07,0,0.09-0.02c0.11-0.03,0.23-0.06,0.35-0.08
			c0.06,0,0.12-0.02,0.17-0.05c0.13-0.05,0.27-0.07,0.4-0.13c0.58-0.2,1.13-0.46,1.65-0.77c0.24-0.14,0.48-0.29,0.69-0.47
			c0.26-0.23,0.55-0.44,0.78-0.71c0.03-0.04,0.06-0.07,0.12-0.07c0.11,0.06,0.18,0.16,0.27,0.24c0.08,0.1,0.17,0.19,0.28,0.25
			c0.15,0.09,0.23,0.26,0.36,0.37c0.06,0.05,0.11,0.1,0.17,0.15c0.02,0.08-0.06,0.1-0.1,0.14c-0.05,0.04-0.09,0.08-0.13,0.12
			c-0.3,0.3-0.63,0.56-0.97,0.8l0,0c-0.06,0.06-0.13,0.11-0.21,0.16l0,0c-0.08,0.08-0.2,0.11-0.29,0.18l0,0
			c-0.07,0.05-0.14,0.1-0.21,0.13c-0.02,0.02-0.05,0.03-0.07,0.05c-0.04,0.04-0.11,0.04-0.16,0.08l0,0
			c-0.05,0.05-0.12,0.07-0.19,0.11c-0.01,0.01-0.03,0.02-0.04,0.03c-0.1,0.07-0.22,0.1-0.32,0.15c-0.03,0.02-0.06,0.03-0.09,0.05
			c-0.11,0.04-0.2,0.11-0.32,0.13c-0.01,0.01-0.03,0.02-0.04,0.03c-0.06,0.03-0.12,0.06-0.18,0.08l0,0
			c-0.04,0.03-0.09,0.03-0.13,0.05l0,0c-0.05,0.03-0.11,0.03-0.16,0.05l0,0c-0.07,0.04-0.14,0.05-0.22,0.08
			c-0.11,0.03-0.22,0.07-0.32,0.1c-0.06,0.02-0.13,0.03-0.19,0.05c-0.02,0.01-0.05,0.02-0.07,0.03c-0.04,0.03-0.09,0-0.13,0.02l0,0
			c-0.14,0.05-0.28,0.07-0.42,0.1l0,0c-0.1,0.03-0.19,0.03-0.29,0.05c-0.04,0.01-0.08,0.02-0.12,0.03c-0.04,0.03-0.09,0-0.14,0.02
			c-0.14-0.01-0.27,0.06-0.41,0.06c-0.06,0.03-0.13-0.01-0.19,0.02c-0.02,0-0.05,0-0.07,0c-0.06,0.03-0.13-0.01-0.19,0.02
			c-0.06,0-0.11,0-0.17,0c-0.11,0.03-0.23-0.01-0.34,0.02c-0.19,0-0.38,0-0.58,0c-0.11-0.03-0.23,0.01-0.34-0.02
			c-0.05,0-0.1,0-0.15,0c-0.07-0.03-0.14,0.01-0.21-0.02c-0.02,0-0.05,0-0.07,0c-0.06-0.03-0.13,0.01-0.19-0.02
			c-0.02,0-0.03,0-0.05,0c-0.04-0.03-0.09,0-0.13-0.02c-0.02,0-0.03,0-0.05,0c-0.04-0.03-0.09,0-0.13-0.02l-0.01,0l-0.01,0
			c-0.04-0.03-0.09,0-0.13-0.02c-0.05-0.02-0.11,0.01-0.16-0.03c-0.08-0.03-0.16-0.03-0.23-0.05l0,0c-0.04-0.03-0.09,0.01-0.13-0.03
			l0,0c-0.04-0.03-0.09,0.01-0.13-0.03l0,0c-0.06-0.02-0.12-0.03-0.18-0.05l0,0c-0.04-0.03-0.09,0.01-0.13-0.03
			c-0.2-0.05-0.4-0.11-0.59-0.18c-0.04-0.02-0.09-0.03-0.13-0.05c-0.03-0.01-0.06,0-0.08-0.03c-0.05-0.03-0.1-0.03-0.15-0.05l0,0
			c-0.04-0.02-0.09-0.03-0.13-0.05c-0.02-0.01-0.04-0.02-0.06-0.02c-0.04-0.03-0.09-0.03-0.12-0.05c-0.04-0.02-0.07-0.03-0.11-0.05
			c-0.05-0.02-0.11-0.02-0.15-0.06c-0.1-0.05-0.21-0.1-0.31-0.15c-0.04-0.04-0.11-0.04-0.15-0.07c-0.27-0.14-0.55-0.29-0.8-0.47
			c-0.03-0.03-0.07-0.03-0.1-0.05c-0.1-0.07-0.19-0.14-0.29-0.21c-0.04-0.03-0.08-0.07-0.12-0.11l0,0
			c-0.05-0.02-0.09-0.04-0.13-0.07c-0.01-0.01-0.02-0.02-0.03-0.03c-0.03-0.03-0.06-0.05-0.1-0.08c-0.02-0.02-0.04-0.03-0.06-0.05
			c-0.03-0.03-0.06-0.05-0.1-0.08c-0.02-0.02-0.04-0.03-0.05-0.05c-0.07-0.05-0.14-0.1-0.2-0.16c-0.07-0.07-0.14-0.14-0.21-0.21
			c-0.06-0.05-0.11-0.11-0.18-0.15c-0.08-0.08-0.15-0.16-0.23-0.24c-0.03-0.04-0.07-0.08-0.11-0.12c-0.04-0.02-0.05-0.08-0.08-0.11
			c-0.04-0.03-0.08-0.06-0.1-0.1c-0.02-0.02-0.03-0.04-0.05-0.06c-0.02-0.04-0.05-0.07-0.08-0.1c-0.22-0.3-0.46-0.59-0.67-0.9
			c-0.21-0.32-0.37-0.66-0.56-0.99c-0.2-0.36-0.32-0.76-0.48-1.14c-0.14-0.35-0.22-0.72-0.3-1.09c-0.05-0.22-0.09-0.45-0.09-0.68
			c-0.02-0.04,0-0.09-0.02-0.13c0-0.04,0-0.08-0.01-0.12c-0.02-0.06,0.01-0.13-0.02-0.19c0-0.08,0-0.15-0.01-0.23
			C7.66,12.64,7.66,12.37,7.68,12.1z"/>
		<path class="st3" d="M43.01,13.78c-0.14-0.52-0.28-1.05-0.42-1.57c-0.03-0.02-0.03-0.06-0.05-0.09c-0.12-0.36-0.2-0.73-0.29-1.1
			c-0.02-0.01-0.03-0.03-0.04-0.05c-0.01,0.07-0.01,0.14-0.01,0.21c0,1.68,0,3.36,0,5.04c0,0.06,0.02,0.13-0.03,0.19
			c-0.38,0-0.76,0-1.15,0C40.98,16.38,41,16.33,41,16.29c0-2.53,0-5.05,0-7.58c0-0.11,0.03-0.13,0.14-0.13c0.47,0.01,0.94,0,1.41,0
			c0.09,0,0.12,0.02,0.15,0.11c0.1,0.4,0.19,0.8,0.32,1.19c0.16,0.5,0.28,1,0.42,1.5c0.03,0.1,0.04,0.21,0.08,0.31
			c0,0.01,0,0.02,0,0.02c0.03,0.05,0.03,0.1,0.06,0.15c0.11,0.35,0.19,0.7,0.29,1.05c0.01,0.04,0.03,0.09,0.05,0.15
			c0.05-0.07,0.03-0.12,0.03-0.16c0-1.39,0-2.78,0-4.17c0-0.16,0-0.16,0.16-0.16c0.28,0,0.56,0,0.84,0c0.19,0,0.19,0,0.19,0.18
			c0,1.37,0,2.74,0,4.11c0,1.13,0,2.27,0,3.4c0,0.04,0.03,0.09-0.03,0.13c-0.41,0-0.82,0-1.23,0c-0.07,0-0.12,0-0.14-0.1
			c-0.04-0.21-0.1-0.41-0.17-0.61c-0.13-0.34-0.2-0.69-0.3-1.03c-0.07-0.24-0.13-0.49-0.19-0.73c-0.02-0.02-0.02-0.04-0.03-0.06
			C43.05,13.83,43.05,13.8,43.01,13.78z"/>
		<path class="st3" d="M65.88,12.8c-0.14-0.53-0.28-1.05-0.42-1.58c-0.01-0.04,0-0.11-0.07-0.13c-0.02-0.04-0.01-0.09-0.05-0.11
			c-0.02,0.06-0.02,0.12-0.02,0.19c0,1.69,0,3.39,0,5.08c0,0.06,0.03,0.12-0.04,0.16c-0.37,0-0.74,0-1.11,0
			c-0.07-0.04-0.04-0.1-0.04-0.15c0-1.01,0-2.02,0-3.03c0-1.49,0-2.98,0-4.47c0-0.17,0-0.17,0.17-0.17c0.44,0,0.89,0,1.33,0
			c0.11,0,0.16,0.04,0.18,0.14c0.01,0.06,0.03,0.12,0.04,0.17c0,0.03-0.01,0.07,0.02,0.1c0.08,0.08,0.08,0.19,0.11,0.28l0,0
			c0.04,0.09,0.05,0.19,0.08,0.29c0.11,0.43,0.21,0.86,0.36,1.29c0.1,0.28,0.15,0.57,0.23,0.86c0.06,0.24,0.13,0.47,0.19,0.71
			c0.04,0.02,0.02,0.08,0.05,0.1c0.06,0.22,0.12,0.43,0.18,0.65c0.01,0,0.02,0,0.03,0c0-0.05,0-0.1,0-0.15c0-1.42,0-2.85,0-4.27
			c0-0.12,0.03-0.15,0.15-0.15c0.29,0.01,0.58,0.01,0.86,0c0.09,0,0.13,0.02,0.13,0.12c0,2.52,0,5.05,0,7.57
			c0,0.1-0.03,0.12-0.13,0.12c-0.36-0.01-0.71,0-1.07,0c-0.09,0-0.11-0.03-0.14-0.11c-0.19-0.5-0.28-1.04-0.44-1.55
			c-0.18-0.56-0.32-1.12-0.48-1.68c-0.02-0.06-0.06-0.1-0.05-0.17C65.89,12.88,65.91,12.82,65.88,12.8z"/>
		<path class="st4" d="M9.97,12c0.02-0.1-0.01-0.21,0.03-0.31c0.02-0.03,0.02-0.06,0.02-0.09c0-0.02,0.01-0.05,0.02-0.06
			c0.05-0.52,0.19-1.02,0.4-1.49c0.14-0.3,0.27-0.62,0.46-0.89c0.16-0.23,0.33-0.45,0.5-0.68c0.02-0.03,0.06-0.05,0.09-0.07
			c0.03-0.03,0.05-0.07,0.08-0.1c0.03-0.04,0.07-0.07,0.1-0.11c0.03-0.04,0.07-0.08,0.11-0.12c0.13-0.12,0.26-0.24,0.38-0.36
			c0.03-0.02,0.07-0.05,0.1-0.08c0.04-0.03,0.07-0.07,0.11-0.1c0.03-0.03,0.07-0.03,0.1-0.05c0.58-0.47,1.24-0.8,1.95-1.03
			c0.02-0.01,0.03-0.02,0.04-0.03c0.05-0.03,0.1-0.03,0.16-0.05c0.08-0.02,0.16-0.04,0.23-0.08c0.04-0.03,0.09,0,0.14-0.03
			c0.07-0.01,0.14-0.02,0.2-0.05c0.04-0.03,0.09,0,0.13-0.03l0,0c0.05-0.03,0.11,0.01,0.16-0.03l0,0c0.04-0.03,0.09,0,0.13-0.03l0,0
			c0.04-0.03,0.09,0,0.13-0.03c0.02,0,0.03,0,0.05,0c0.05-0.03,0.11,0.01,0.16-0.02c0.02,0,0.05,0,0.07,0
			c0.07-0.03,0.14,0.01,0.21-0.02c0.06,0,0.12,0,0.18,0c0.21-0.02,0.41-0.02,0.62,0c0.05,0,0.1,0,0.15,0
			c0.08,0.03,0.16-0.01,0.24,0.02c0.02,0,0.05,0,0.07,0c0.04,0.03,0.09,0,0.13,0.02c0.02,0,0.05,0,0.07,0
			c0.04,0.03,0.09-0.01,0.14,0.03l0,0c0.04,0.03,0.09-0.01,0.13,0.03c0.08,0.03,0.17,0.05,0.25,0.05c0.04,0.03,0.1-0.01,0.13,0.03
			c0.54,0.13,1.06,0.34,1.57,0.56c0.05,0.02,0.1,0.04,0.14,0.08c0.01,0.02,0.03,0.02,0.05,0.02C20.14,6.95,20.2,6.97,20.25,7
			c0.02,0.01,0.05,0.03,0.07,0.04c0.04,0.03,0.09,0.04,0.13,0.08l0,0c0.04,0.02,0.07,0.05,0.1,0.08c0.02,0.02,0.05,0.03,0.07,0.05
			c0.05,0.03,0.09,0.05,0.14,0.08l0,0c0.04,0.02,0.07,0.05,0.1,0.08l0,0c0.05,0.03,0.08,0.07,0.13,0.1l0,0
			c0.06,0.04,0.11,0.09,0.16,0.14c0.02,0.01,0.05,0.03,0.07,0.04c0.18,0.13,0.19,0.15,0.03,0.3c-0.08,0.07-0.16,0.13-0.24,0.21
			c-0.03,0.02-0.05,0.05-0.08,0.07c-0.15,0.15-0.16,0.16-0.31,0.02c-0.27-0.24-0.57-0.43-0.87-0.63c-0.03-0.02-0.07-0.03-0.1-0.05
			c-0.5-0.26-1.03-0.46-1.58-0.6c-0.04-0.03-0.09,0.01-0.13-0.03c-0.04,0-0.08,0-0.12-0.03c-0.05-0.03-0.11,0.01-0.16-0.03l0,0
			c-0.06-0.03-0.13,0.01-0.18-0.03l0,0c-0.08-0.03-0.18,0.01-0.26-0.03l0,0c-0.31-0.03-0.62-0.01-0.94-0.01
			c-0.04,0-0.09-0.01-0.13,0.01l0,0c-0.07,0.04-0.16-0.01-0.23,0.03l0,0c-0.07,0.04-0.14-0.01-0.21,0.03l0,0
			c-0.04,0.03-0.09,0-0.13,0.03l0,0c-0.04,0.03-0.09,0-0.13,0.03l0,0c-0.05,0.04-0.11,0-0.16,0.03c-0.28,0.09-0.57,0.15-0.85,0.26
			c-0.33,0.13-0.65,0.28-0.95,0.47c-0.46,0.28-0.88,0.62-1.25,1.01c-0.28,0.31-0.52,0.64-0.74,1c-0.24,0.41-0.39,0.85-0.54,1.29
			c-0.08,0.23-0.12,0.47-0.14,0.71c-0.03,0.04,0,0.09-0.02,0.13c0,0.04,0,0.08-0.01,0.12c-0.03,0.06,0,0.12-0.02,0.18
			c-0.01,0.2-0.01,0.4,0,0.6c0.02,0.06-0.01,0.12,0.02,0.18c0.01,0.33,0.07,0.66,0.18,0.97c0.12,0.35,0.22,0.7,0.4,1.02
			c0.15,0.27,0.3,0.54,0.5,0.78c0.03,0.03,0.06,0.05,0.08,0.08c0.08,0.11,0.15,0.22,0.25,0.31c0.04,0.03,0.06,0.07,0.09,0.1
			c0.22,0.21,0.44,0.43,0.69,0.62c0.39,0.3,0.8,0.54,1.25,0.73c0.57,0.24,1.15,0.42,1.78,0.45c0.04,0.03,0.09,0,0.13,0.02
			c0.07,0,0.14,0,0.2,0.01c0.23,0.02,0.45,0.02,0.68,0c0.06,0,0.12,0,0.18-0.01c0.05-0.02,0.11,0.01,0.16-0.02
			c0.39-0.02,0.77-0.11,1.14-0.23c0.51-0.16,1-0.38,1.45-0.67c0.22-0.14,0.44-0.29,0.63-0.47c0.05-0.05,0.14-0.07,0.18-0.13
			c0.05-0.06,0.1-0.11,0.15-0.15c0.02-0.02,0.05-0.06,0.08-0.01c0.02,0.01,0.03,0.03,0.05,0.04c0.06,0.04,0.12,0.07,0.16,0.13
			c0.06,0.07,0.13,0.14,0.21,0.2c0.05,0.05,0.15,0.07,0.13,0.18c-0.09,0.09-0.19,0.18-0.28,0.28c-0.05,0.06-0.12,0.1-0.18,0.14
			c-0.26,0.22-0.53,0.41-0.83,0.58c-0.2,0.11-0.4,0.24-0.61,0.33c-0.07,0.04-0.14,0.07-0.21,0.1l0,0c-0.06,0.03-0.12,0.06-0.18,0.08
			l0,0c-0.22,0.07-0.42,0.16-0.65,0.21l0,0c-0.18,0.11-0.39,0.13-0.58,0.17c-0.48,0.1-0.97,0.13-1.47,0.12
			c-0.55-0.01-1.09-0.08-1.62-0.22c-0.04-0.04-0.11-0.03-0.15-0.06c-0.02,0-0.03,0-0.05,0c-0.17-0.09-0.36-0.11-0.54-0.19
			c-0.05-0.02-0.11-0.05-0.16-0.07l0,0c-0.09-0.04-0.2-0.07-0.29-0.12c-0.24-0.12-0.49-0.25-0.73-0.39
			c-0.48-0.29-0.92-0.64-1.31-1.04c-0.27-0.27-0.5-0.58-0.72-0.9c-0.19-0.28-0.34-0.59-0.49-0.88c-0.23-0.44-0.34-0.91-0.44-1.39
			c-0.01-0.07-0.02-0.13-0.03-0.2c-0.02-0.02-0.02-0.04-0.02-0.06c0-0.03,0-0.07-0.02-0.09c0-0.02-0.01-0.03-0.01-0.05
			c-0.02-0.04,0.01-0.09-0.02-0.13c0-0.05,0-0.1-0.01-0.15c-0.02-0.07,0.01-0.14-0.02-0.21c0-0.18,0-0.35,0-0.53
			C9.98,12.16,9.95,12.08,9.97,12z"/>
		<path class="st3" d="M32.2,16.46c-0.76,0-1.52,0-2.28,0c-0.04-0.04-0.02-0.08-0.02-0.12c0-2.56,0-5.11,0-7.67
			c0-0.14,0-0.14,0.14-0.14c0.71,0,1.42-0.01,2.13,0c0.39,0.01,0.77,0.09,1.1,0.33c0.08,0.06,0.18,0.1,0.23,0.2l0,0
			c0.13,0.13,0.21,0.3,0.28,0.47c0.02,0.04,0.02,0.09,0.05,0.13c0,0.05,0.04,0.09,0.05,0.13c0.05,0.19,0.07,0.39,0.07,0.58
			c0,1.42,0,2.84,0,4.26c0,0.45-0.12,0.87-0.4,1.23l0,0c-0.07,0.1-0.15,0.19-0.26,0.24c-0.22,0.17-0.47,0.28-0.75,0.31
			c-0.04,0-0.08,0.02-0.12,0.03C32.35,16.47,32.27,16.43,32.2,16.46z"/>
		<path class="st3" d="M53.2,14.03c0-0.02,0-0.04,0-0.07c-0.03-0.04,0-0.09-0.02-0.13c-0.05-0.16-0.1-0.32-0.24-0.43
			c-0.07-0.06-0.16-0.08-0.25-0.11l0,0c-0.04-0.03-0.09,0.01-0.13-0.03l-0.01,0l-0.01,0.01c-0.17-0.02-0.33,0-0.5-0.01
			c-0.05,0-0.07,0.02-0.07,0.07c0,0.03,0,0.06,0,0.09c0,0.95,0,1.9,0,2.85c0,0.05,0.03,0.11-0.04,0.15c-0.38,0-0.77-0.01-1.15,0
			c-0.11,0-0.13-0.03-0.13-0.13c0-2.5,0-5,0-7.5c0-0.05,0-0.1,0-0.15c0.02-0.06,0.07-0.04,0.11-0.04c0.64,0,1.29-0.01,1.93,0
			c0.35,0.01,0.7,0.05,1.03,0.2c0.18,0.08,0.32,0.21,0.45,0.35c0.28,0.31,0.32,0.7,0.35,1.09c0.03,0.38,0.02,0.75-0.01,1.13
			c-0.02,0.26-0.07,0.51-0.22,0.73c-0.14,0.2-0.3,0.39-0.53,0.49c-0.02,0.01-0.05,0.01-0.04,0.05c0.06,0.02,0.12,0.05,0.17,0.07
			c0.06,0.02,0.09,0.07,0.14,0.1l0,0c0.05,0.02,0.09,0.06,0.1,0.11c0.01,0.01,0.01,0.01,0.02,0.02c0.23,0.17,0.27,0.43,0.33,0.67
			c0.04,0.17,0.06,0.34,0.06,0.51c0,0.47,0,0.94,0,1.41c0,0.28,0.01,0.56,0.12,0.82c0.01,0.02,0.01,0.05-0.01,0.07
			c-0.36,0-0.72,0-1.08,0c-0.23,0-0.26-0.02-0.28-0.25c-0.04-0.04-0.02-0.1-0.05-0.14c0-0.07,0-0.13-0.01-0.2
			c-0.02-0.05-0.01-0.09-0.01-0.14c0-0.5,0-1.01,0-1.51C53.21,14.12,53.22,14.07,53.2,14.03z"/>
		<path class="st3" d="M59.48,9.81c0.02-0.09,0.04-0.17,0.07-0.26c0.08-0.09,0.11-0.21,0.19-0.31l0,0c0.08-0.12,0.15-0.26,0.29-0.34
			l0,0c0.52-0.4,1.11-0.45,1.73-0.39c0.28,0.03,0.53,0.12,0.78,0.24c0.07,0.03,0.14,0.09,0.19,0.15l0,0
			c0.07,0.04,0.12,0.09,0.16,0.16l0,0c0.15,0.13,0.25,0.31,0.31,0.5c0.01,0.09,0.03,0.17,0.07,0.25c0.06,0.04,0,0.11,0.04,0.15l0,0
			c0.04,0.06-0.01,0.13,0.03,0.18l0,0c0.03,0.03,0.02,0.07,0.02,0.11c0,1.5,0,3,0,4.5c0,0.04,0.01,0.08-0.02,0.11l0,0
			c-0.03,0.07,0.01,0.14-0.03,0.21l0,0c-0.03,0.04,0.01,0.09-0.03,0.13l0,0c-0.02,0.06-0.01,0.13-0.06,0.18
			c-0.02,0.04-0.04,0.08-0.04,0.13c-0.03,0.09-0.07,0.18-0.13,0.26l0,0c-0.01,0.04-0.05,0.06-0.08,0.08l0,0
			c-0.03,0.05-0.07,0.09-0.11,0.13c-0.27,0.29-0.62,0.42-1,0.49c-0.04,0.03-0.1,0-0.14,0.02c-0.02,0-0.05,0-0.07,0
			c-0.17,0.02-0.34,0.02-0.52,0c-0.03-0.01-0.06-0.02-0.09,0c-0.04-0.02-0.1,0-0.14-0.02c-0.28-0.04-0.55-0.12-0.78-0.31
			c-0.03-0.03-0.07-0.03-0.1-0.05c-0.04-0.04-0.09-0.08-0.13-0.13c-0.03-0.05-0.07-0.08-0.1-0.13c-0.02-0.03-0.03-0.05-0.05-0.08
			c-0.05-0.08-0.09-0.17-0.13-0.26l0,0c-0.04-0.04-0.06-0.08-0.08-0.13l0,0c-0.03-0.06-0.03-0.12-0.05-0.18l0,0
			c-0.04-0.04,0-0.09-0.03-0.13l0,0c-0.04-0.06,0-0.14-0.03-0.21l0,0c-0.03-0.03-0.02-0.07-0.02-0.11c0-1.5,0-3,0-4.5
			c0-0.04-0.01-0.08,0.02-0.11l0,0c0.03-0.06-0.01-0.13,0.03-0.18l0,0C59.48,9.91,59.44,9.85,59.48,9.81z"/>
		<path class="st3" d="M48.36,16.46L48.36,16.46l-0.02,0c-0.05,0.03-0.11,0-0.16,0.02c-0.02,0-0.03,0-0.05,0
			c-0.17,0.02-0.34,0.02-0.52,0c-0.02,0-0.05,0-0.07,0c-0.05-0.03-0.11,0-0.16-0.02c-0.54-0.09-0.98-0.33-1.24-0.83
			c-0.07-0.14-0.12-0.28-0.15-0.44c-0.02-0.03-0.02-0.06-0.03-0.09c-0.08-0.38-0.06-0.76-0.06-1.14c0-1.03,0-2.06,0-3.09
			c0-0.27,0-0.53,0.03-0.8c0.01-0.06,0.05-0.12,0.04-0.19c0-0.03,0-0.06,0.03-0.08c0.05-0.22,0.12-0.43,0.26-0.62
			c0.02-0.04,0.05-0.07,0.08-0.1c0.01-0.01,0.02-0.02,0.02-0.03c0.05-0.08,0.14-0.12,0.21-0.18l0,0c0.03-0.03,0.06-0.06,0.11-0.08
			l0,0c0.05-0.05,0.12-0.07,0.18-0.11l0,0c0.28-0.13,0.57-0.19,0.88-0.2c0.4-0.01,0.79,0.02,1.16,0.19
			c0.08,0.04,0.15,0.08,0.22,0.13c0.38,0.26,0.59,0.63,0.67,1.08c0.04,0.22,0.05,0.43,0.05,0.65c0,1.37,0,2.74,0,4.11
			c0,0.42-0.1,0.82-0.35,1.18c-0.05,0.07-0.11,0.11-0.17,0.16c-0.01,0.01-0.01,0.01-0.02,0.02c-0.05,0.05-0.09,0.1-0.16,0.14l0,0
			c-0.04,0.03-0.06,0.07-0.11,0.08c-0.17,0.09-0.35,0.15-0.53,0.21C48.46,16.47,48.41,16.43,48.36,16.46z"/>
		<path class="st4" d="M14.17,7.95c0.02-0.01,0.03-0.02,0.05-0.03c0.04-0.02,0.09-0.05,0.14-0.07c0.02-0.01,0.05-0.02,0.07-0.03
			c0.04-0.03,0.09-0.03,0.13-0.05c0.23-0.11,0.48-0.16,0.72-0.26c0.04-0.03,0.09,0,0.13-0.03c0.07-0.01,0.14-0.02,0.2-0.05
			c0.04-0.03,0.09,0,0.13-0.03l0,0c0.06-0.04,0.12,0.01,0.18-0.03l0,0c0.06-0.04,0.13,0.01,0.19-0.03c0.01,0,0.01,0,0.02,0
			c0.09-0.04,0.2,0.01,0.29-0.03c0.01,0,0.01,0,0.02,0c0.22-0.02,0.43-0.02,0.65,0c0.01,0,0.01,0,0.02,0
			c0.1,0.03,0.21-0.01,0.32,0.03l0,0c0.06,0.03,0.13-0.01,0.18,0.03l0,0c0.05,0.03,0.11-0.01,0.16,0.03l0,0
			c0.05,0.04,0.11-0.02,0.15,0.04c0.36,0.09,0.71,0.2,1.06,0.33c0.04,0.03,0.1,0.02,0.13,0.06c0.02,0.01,0.03,0.01,0.05,0.02
			c0.05,0.04,0.11,0.04,0.16,0.08c0.03,0.03,0.06,0.04,0.1,0.05c0.05,0.02,0.1,0.04,0.14,0.08c0.02,0.01,0.03,0.01,0.05,0.02
			c0.09,0.06,0.19,0.08,0.26,0.16c0.02,0.02,0.05,0.03,0.07,0.05c0.04,0.02,0.07,0.05,0.11,0.08l0,0c0.04,0.02,0.07,0.05,0.1,0.08
			l0,0c0.06,0.05,0.13,0.08,0.18,0.14c0.01,0.01,0.01,0.01,0.02,0.02c0.01,0.01,0-0.01,0.01,0.01c0.19,0.14,0.19,0.14,0.03,0.31
			c-0.07,0.07-0.16,0.13-0.23,0.2c-0.01,0-0.01,0.01-0.02,0.01c-0.08,0.06-0.13,0.2-0.22,0.19c-0.08-0.01-0.16-0.11-0.23-0.17
			c-0.34-0.28-0.73-0.49-1.14-0.66c-0.34-0.14-0.69-0.24-1.06-0.29c-0.02,0-0.05-0.01-0.07-0.02c-0.05-0.03-0.11,0-0.16-0.02
			c-0.03,0-0.07,0-0.1,0c-0.25-0.02-0.51-0.02-0.76,0c-0.04,0-0.08,0-0.12,0c-0.04,0.03-0.09,0-0.13,0.02
			c-0.07,0.01-0.13,0.02-0.2,0.03c-0.04,0.03-0.09,0-0.13,0.02c-0.47,0.09-0.91,0.26-1.33,0.48C14.22,8.84,14,8.99,13.79,9.15
			c-0.33,0.26-0.6,0.57-0.85,0.9c-0.2,0.28-0.33,0.58-0.48,0.89c-0.18,0.39-0.25,0.79-0.27,1.21c-0.03,0.09,0.01,0.19-0.02,0.29
			c0,0.05,0,0.11,0,0.16c0.02,0.09-0.01,0.18,0.02,0.26c0.01,0.43,0.12,0.83,0.29,1.22c0.21,0.49,0.49,0.92,0.84,1.3
			c0.13,0.11,0.25,0.22,0.37,0.34c0.03,0.02,0.05,0.05,0.08,0.07c0.04,0.02,0.08,0.05,0.1,0.09c0.01,0.02,0.03,0.02,0.05,0.02
			c0.04,0.02,0.07,0.05,0.11,0.08l0,0c0.04,0.02,0.07,0.05,0.1,0.08c0.05,0.03,0.1,0.07,0.15,0.1c0.05,0.04,0.11,0.04,0.16,0.08l0,0
			c0.06,0.04,0.13,0.05,0.18,0.11c0.05,0.03,0.09,0.06,0.15,0.07c0.12,0.05,0.24,0.07,0.34,0.15c0.41,0.16,0.84,0.26,1.29,0.27
			c0.24,0.02,0.47,0.02,0.71,0c0.04,0,0.08,0,0.13-0.01c0.04-0.02,0.09,0,0.13-0.02c0.38-0.04,0.75-0.12,1.1-0.28
			c0.06-0.02,0.12-0.06,0.19-0.08c0.01-0.01,0.03-0.02,0.04-0.03c0.05-0.02,0.1-0.02,0.14-0.05c0.12-0.07,0.24-0.14,0.35-0.21
			c0.03-0.02,0.07-0.03,0.11-0.05c0.09-0.07,0.18-0.14,0.28-0.21c0.04-0.02,0.07-0.05,0.1-0.08c0.04-0.03,0.07-0.05,0.11-0.08
			c0.07-0.05,0.13-0.1,0.18-0.17c0.07-0.08,0.13-0.08,0.19,0c0.01,0.02,0.04,0.02,0.04,0.04c0.02,0.01,0.05,0.03,0.07,0.04
			c0.14,0.09,0.24,0.23,0.36,0.34c0.04,0.03,0.02,0.07-0.01,0.1c-0.05,0.04-0.08,0.1-0.14,0.13c-0.04,0.02-0.07,0.06-0.1,0.1
			c-0.04,0.04-0.08,0.08-0.13,0.11c-0.03,0.01-0.05,0.03-0.08,0.04c-0.03,0.04-0.07,0.06-0.1,0.09c-0.8,0.58-1.68,0.92-2.66,1.04
			c-0.05,0.02-0.11-0.01-0.16,0.02c-0.05,0-0.1,0-0.15,0.01c-0.23,0.01-0.46,0.01-0.69,0c-0.06,0-0.12,0-0.18-0.01
			c-0.04-0.03-0.09,0-0.13-0.02c-0.66-0.06-1.29-0.25-1.89-0.55c-0.26-0.13-0.49-0.29-0.73-0.45c-0.21-0.14-0.38-0.32-0.58-0.47
			c-0.1-0.07-0.17-0.18-0.25-0.27c-0.22-0.25-0.41-0.51-0.59-0.79c-0.27-0.41-0.42-0.86-0.56-1.33c-0.06-0.2-0.1-0.4-0.13-0.6
			c-0.02-0.04,0.01-0.09-0.02-0.13c0-0.05,0-0.1-0.01-0.15c-0.01-0.23-0.01-0.46,0-0.69c0-0.05,0-0.1,0.01-0.15
			c0.03-0.04,0-0.09,0.02-0.13c0.04-0.49,0.21-0.95,0.39-1.4c0.14-0.37,0.38-0.68,0.59-1.01c0.07-0.11,0.18-0.2,0.27-0.3
			c0.03-0.03,0.05-0.06,0.08-0.1c0.03-0.04,0.07-0.07,0.1-0.11c0.08-0.1,0.19-0.16,0.28-0.25c0.03-0.03,0.05-0.05,0.08-0.08
			c0.05-0.03,0.08-0.07,0.12-0.1c0.02-0.02,0.04-0.03,0.06-0.05c0.03-0.03,0.07-0.03,0.1-0.05c0.01-0.01,0.02-0.02,0.03-0.03
			c0.04-0.02,0.07-0.06,0.11-0.07c0.06-0.04,0.12-0.09,0.17-0.13c0.04-0.03,0.09-0.05,0.13-0.08l0,0c0.04-0.02,0.07-0.03,0.11-0.05
			c0.02-0.01,0.03-0.02,0.05-0.03C14.08,8,14.12,7.97,14.17,7.95z"/>
		<path class="st3" d="M38.32,9.67c-0.74-0.01-1.47-0.01-2.21,0c-0.02,0.04-0.01,0.08-0.01,0.13c0,0.65,0,1.3,0,1.95
			c0,0.1,0.02,0.14,0.13,0.14c0.51-0.01,1.01,0,1.52,0c0.14,0,0.14,0,0.14,0.14c0,0.29,0,0.58,0,0.86c0,0.11-0.04,0.14-0.14,0.14
			c-0.5,0-1.01,0-1.51,0c-0.14,0-0.14,0-0.14,0.14c0,0.67,0,1.34,0,2.01c0,0.11,0.03,0.13,0.14,0.13c0.66,0,1.32,0,1.99,0
			c0.11,0,0.14,0.03,0.14,0.14c-0.01,0.3,0,0.59,0,0.89c0,0.04,0.01,0.09-0.03,0.12c-1.18,0-2.37,0-3.55,0
			c-0.04-0.04-0.02-0.08-0.02-0.12c0-2.56,0-5.11,0-7.67c0-0.14,0-0.14,0.14-0.14c1.1,0,2.21,0,3.31,0c0.15,0,0.15,0,0.15,0.15
			c0,0.28,0,0.57,0,0.85C38.35,9.58,38.37,9.64,38.32,9.67z"/>
		<path class="st3" d="M26.04,12.62c-0.12-0.42-0.25-0.83-0.37-1.25c-0.03-0.09-0.05-0.18-0.07-0.28c-0.03-0.02-0.03-0.06-0.05-0.08
			c-0.16-0.51-0.31-1.01-0.45-1.52c-0.02-0.03-0.02-0.08-0.06-0.1c-0.08-0.27-0.16-0.55-0.24-0.82c0-0.06,0.05-0.04,0.08-0.04
			c0.4,0,0.81,0,1.21,0c0.08,0,0.1,0.03,0.12,0.1c0.09,0.32,0.17,0.65,0.25,0.97c0.01,0.05,0.02,0.11,0.05,0.16
			c0.02,0.05,0.01,0.1,0.05,0.14c0.14,0.55,0.3,1.1,0.43,1.65c0.03,0.03,0.02,0.09,0.06,0.12c0.02,0.12,0.07,0.23,0.08,0.34
			c0,0.02,0.01,0.05,0.04,0.04c0.01-0.01,0.02-0.03,0.03-0.04c0.07-0.29,0.15-0.58,0.22-0.87c0.04-0.09,0.07-0.18,0.09-0.28
			c0-0.03,0.01-0.05,0.03-0.07c0.15-0.56,0.29-1.13,0.44-1.69c0.02-0.03,0.02-0.06,0.05-0.09c0.04-0.13,0.07-0.27,0.11-0.4
			c0-0.07,0.05-0.08,0.11-0.08c0.35,0,0.71,0.01,1.06,0c0.11,0,0.11,0.05,0.08,0.12c-0.08,0.26-0.15,0.52-0.23,0.77
			c-0.05,0.17-0.1,0.35-0.15,0.52c-0.02,0.07-0.09,0.12-0.08,0.2c-0.12,0.4-0.24,0.8-0.36,1.21c-0.01,0.02-0.02,0.05-0.03,0.07
			c-0.02,0.04-0.04,0.08-0.04,0.13c-0.12,0.31-0.2,0.64-0.3,0.96c-0.05,0.17-0.11,0.34-0.15,0.51c-0.04,0.04-0.03,0.09-0.07,0.13
			c-0.05,0.19-0.11,0.38-0.17,0.57c-0.03,0.09-0.04,0.18-0.04,0.27c0,0.77,0,1.54,0,2.31c0,0.05,0.02,0.11-0.03,0.16
			c-0.39,0-0.77-0.01-1.16,0c-0.12,0-0.15-0.04-0.14-0.15c0-0.69-0.01-1.37,0.01-2.06c0.01-0.31-0.07-0.59-0.16-0.87
			c-0.07-0.22-0.13-0.45-0.19-0.68C26.07,12.68,26.06,12.64,26.04,12.62z"/>
		<path class="st3" d="M57.61,16.41c-0.41,0-0.82,0-1.23,0c-0.07-0.04-0.04-0.1-0.04-0.15c0-1.35,0-2.7,0-4.05c0-0.79,0-1.57,0-2.36
			c0-0.1-0.02-0.14-0.13-0.14c-0.37,0.01-0.73,0-1.1,0c-0.09,0-0.12-0.02-0.12-0.11c0.01-0.3,0.01-0.59,0-0.89
			c0-0.1,0.03-0.13,0.14-0.13c1.24,0,2.49,0,3.73,0c0.11,0,0.14,0.04,0.14,0.14c-0.01,0.29-0.01,0.58,0,0.88
			c0,0.1-0.03,0.12-0.13,0.12c-0.34-0.01-0.69,0-1.03,0c-0.18,0-0.16-0.02-0.16,0.17c0,2.12,0,4.25,0,6.37
			C57.68,16.31,57.71,16.39,57.61,16.41z"/>
		<path class="st3" d="M25.36,16.46c-1.14,0-2.28,0-3.42,0c-0.04-0.04-0.02-0.08-0.02-0.12c0-2.56,0-5.12,0-7.67
			c0-0.1,0.02-0.14,0.13-0.14c0.36,0.01,0.71,0,1.07,0c0.14,0,0.14,0,0.14,0.14c0,2.16,0,4.32,0,6.48c0,0.03,0,0.06,0,0.09
			c-0.01,0.06,0.02,0.09,0.08,0.08c0.06,0,0.12,0,0.18,0c0.58,0,1.15,0,1.73,0c0.11,0,0.14,0.03,0.14,0.14c-0.01,0.3,0,0.59,0,0.89
			C25.39,16.38,25.4,16.43,25.36,16.46z"/>
		<path class="st5" d="M14.42,14.59c0.09,0.09,0.19,0.16,0.3,0.22c0.07,0.04,0.15,0.06,0.21,0.11c0.01,0.02,0.03,0.02,0.04,0.02
			c0.24,0.1,0.49,0.18,0.75,0.23c0.33,0.05,0.66,0.05,1,0.01c0.27-0.04,0.53-0.14,0.78-0.23c0.03-0.02,0.06-0.04,0.09-0.05
			c0.04-0.03,0.09-0.05,0.13-0.08c0.13-0.05,0.23-0.14,0.33-0.23c0.05-0.03,0.08-0.07,0.12-0.1c0.04-0.03,0.07-0.06,0.11-0.08
			c0.07-0.02,0.09,0.03,0.12,0.07c0.17,0.19,0.18,0.2-0.02,0.37c-0.27,0.24-0.57,0.41-0.9,0.54c-0.2,0.09-0.42,0.12-0.63,0.18
			c-0.04,0.03-0.09,0-0.14,0.02c-0.02,0-0.03,0-0.05,0c-0.05,0.03-0.11,0-0.16,0.02c-0.03,0-0.06,0-0.09,0
			c-0.13,0.02-0.26,0.02-0.39,0c-0.03,0-0.06,0-0.09,0c-0.06-0.03-0.13,0.01-0.19-0.02c-0.47-0.07-0.9-0.22-1.31-0.47
			c-0.52-0.32-0.91-0.76-1.19-1.29c-0.14-0.27-0.23-0.57-0.26-0.88c-0.02-0.04,0-0.09-0.02-0.13c0-0.04,0-0.08-0.01-0.12
			c-0.01-0.13-0.01-0.26,0-0.39c0.01-0.37,0.1-0.71,0.24-1.05c0.1-0.26,0.27-0.48,0.43-0.7c0.17-0.24,0.41-0.43,0.65-0.6
			c0.19-0.13,0.39-0.27,0.62-0.33c0.32-0.17,0.68-0.23,1.03-0.27c0.47-0.05,0.93,0.02,1.38,0.16c0.09,0.03,0.17,0.06,0.25,0.11
			c0.23,0.13,0.47,0.25,0.69,0.41c0.26,0.19,0.27,0.24,0.01,0.43c-0.06,0.04-0.1,0.03-0.15-0.02c-0.4-0.35-0.86-0.56-1.39-0.64
			c-0.04-0.01-0.07-0.04-0.11-0.03c-0.04-0.03-0.09,0-0.13-0.02c-0.16-0.02-0.33-0.02-0.49,0c-0.04,0.02-0.09-0.01-0.13,0.02
			c-0.27,0.01-0.52,0.09-0.76,0.19c-0.32,0.13-0.61,0.31-0.87,0.54c-0.42,0.39-0.7,0.86-0.79,1.43c-0.03,0.03-0.02,0.08-0.05,0.11
			c0,0.02,0,0.05,0,0.07c-0.03,0.04,0,0.09-0.02,0.13c-0.02,0.16-0.02,0.31,0,0.47c0.02,0.04,0,0.09,0.02,0.14
			c0,0.02,0,0.05,0.01,0.07c0.02,0.03,0.03,0.06,0.04,0.09c0.07,0.41,0.21,0.78,0.49,1.1c0.12,0.13,0.22,0.28,0.36,0.39
			C14.33,14.53,14.38,14.56,14.42,14.59z"/>
		<path class="st5" d="M16.93,14.5c0.03,0.01,0.05-0.01,0.07-0.03c0.04-0.02,0.09-0.03,0.14-0.05c0.17-0.08,0.34-0.15,0.48-0.29
			c0.04-0.02,0.07-0.05,0.1-0.08c0.05-0.04,0.09-0.07,0.14-0.11c0.07,0.01,0.1,0.07,0.15,0.12c0.13,0.14,0.13,0.14-0.03,0.31
			c-0.03,0.04-0.06,0.06-0.11,0.09c-0.01,0.01-0.02,0.01-0.02,0.02c-0.02,0.04-0.07,0.04-0.11,0.06c-0.07,0.04-0.13,0.09-0.2,0.13
			c-0.07,0.04-0.14,0.08-0.21,0.1c-0.15,0.05-0.31,0.1-0.46,0.16c-0.04,0.03-0.09,0-0.14,0.02l-0.01,0l-0.01,0.01
			c-0.04,0.03-0.1,0-0.14,0.02c-0.02,0-0.05,0-0.07,0c-0.17,0.02-0.34,0.02-0.52,0c-0.02,0-0.03,0-0.05,0
			c-0.05-0.03-0.11,0.01-0.16-0.02c-0.17-0.03-0.35-0.05-0.51-0.13c-0.04-0.02-0.08-0.03-0.11-0.05c-0.07-0.03-0.14-0.07-0.21-0.1
			c-0.03-0.03-0.07-0.04-0.1-0.05c-0.11-0.06-0.2-0.13-0.29-0.21c-0.03-0.03-0.06-0.05-0.1-0.08c-0.46-0.41-0.76-0.9-0.83-1.52
			c-0.02-0.05,0.01-0.11-0.02-0.16c0-0.12,0-0.23,0-0.35c0.02-0.04,0-0.09,0.02-0.14c0.01-0.28,0.1-0.55,0.22-0.79
			c0.17-0.32,0.39-0.61,0.7-0.85c0.43-0.33,0.91-0.49,1.43-0.56c0.17-0.01,0.34-0.01,0.51,0c0.48,0.06,0.91,0.22,1.31,0.48
			c0.04,0.02,0.07,0.05,0.1,0.08c0.04,0.04,0.09,0.08,0.14,0.14c-0.07,0.06-0.15,0.12-0.21,0.19c-0.06,0.07-0.12,0.06-0.17,0.01
			c-0.29-0.27-0.64-0.39-1.01-0.48c-0.09-0.02-0.19-0.02-0.29-0.03c-0.09-0.02-0.18-0.02-0.28,0c-0.42,0.02-0.8,0.15-1.16,0.38
			c-0.25,0.16-0.45,0.38-0.6,0.62c-0.17,0.26-0.29,0.56-0.3,0.88c-0.02,0.16-0.02,0.32,0,0.48c0.03,0.44,0.19,0.82,0.51,1.13
			c0.08,0.08,0.16,0.16,0.24,0.24c0.01,0.02,0.03,0.04,0.05,0.04c0.04,0.02,0.08,0.02,0.1,0.06c0.1,0.08,0.21,0.15,0.33,0.2
			c0.05,0.03,0.12,0.01,0.16,0.06c0.11,0.04,0.21,0.09,0.33,0.09c0.06,0.03,0.13-0.01,0.19,0.03l0.01,0l0.01,0
			c0.19,0.02,0.37,0.02,0.56,0l0,0c0.05-0.04,0.11,0,0.16-0.03c0.04,0.01,0.07,0,0.09-0.02C16.83,14.5,16.89,14.53,16.93,14.5z"/>
		<path class="st6" d="M57.61,16.41c0.06-0.04,0.04-0.11,0.04-0.16c0-2.12,0-4.24,0-6.36c0-0.17,0-0.17,0.17-0.17
			c0.35,0,0.7,0,1.05,0c0.09,0,0.11-0.02,0.11-0.11c0-0.3,0-0.6,0-0.9c0-0.08-0.03-0.1-0.1-0.1c-1.26,0-2.51,0-3.77,0
			c-0.08,0-0.1,0.03-0.1,0.1c0,0.3,0,0.6,0,0.9c0,0.09,0.03,0.11,0.11,0.11c0.36,0,0.72,0.01,1.08-0.01c0.14,0,0.16,0.04,0.16,0.17
			c0,2.12,0,4.25,0,6.37c0,0.05-0.02,0.11,0.02,0.16c-0.08-0.01-0.05-0.08-0.05-0.12c0-0.4,0-0.79,0-1.19c0-1.74,0-3.47,0-5.21
			c0-0.13-0.03-0.17-0.16-0.17c-0.35,0.01-0.71,0-1.06,0.01c-0.09,0-0.13-0.02-0.13-0.12c0.01-0.31,0.01-0.62,0-0.93
			c0-0.09,0.03-0.12,0.12-0.12c1.26,0,2.53,0,3.79,0c0.09,0,0.12,0.02,0.12,0.12c0,0.31-0.01,0.62,0,0.93c0,0.1-0.04,0.12-0.13,0.12
			c-0.35,0-0.7,0-1.05,0c-0.12,0-0.15,0.04-0.15,0.15c0,2.13,0,4.26,0,6.38C57.69,16.32,57.74,16.41,57.61,16.41z"/>
		<path class="st6" d="M25.36,16.46c0.03-0.35,0-0.7,0.01-1.06c0-0.09-0.06-0.07-0.12-0.07c-0.45,0-0.89,0-1.34,0
			c-0.19,0-0.39,0-0.58,0c-0.07,0-0.1-0.02-0.1-0.1c0-0.03,0-0.07,0-0.1c0-2.14,0-4.29,0-6.43c0-0.19,0.02-0.16-0.17-0.16
			c-0.34,0-0.69,0-1.03,0c-0.09,0-0.12,0.02-0.12,0.11c0,2.57,0,5.13,0,7.7c0,0.04,0.01,0.08,0.01,0.11
			c-0.05-0.03-0.03-0.08-0.03-0.12c0-2.57,0-5.13,0-7.7c0-0.1,0.03-0.13,0.13-0.13c0.36,0.01,0.72,0.01,1.08,0
			c0.12,0,0.16,0.03,0.16,0.16c0,2.14,0,4.27,0,6.41c0,0.03,0,0.05,0,0.08c-0.02,0.11,0.02,0.15,0.14,0.15c0.61-0.01,1.22,0,1.83,0
			c0.17,0,0.17,0,0.17,0.17c0,0.29,0,0.58,0,0.86C25.42,16.39,25.45,16.45,25.36,16.46z"/>
		<path class="st6" d="M38.32,16.46c0.03-0.35,0-0.7,0.01-1.06c0-0.09-0.06-0.07-0.12-0.07c-0.41,0-0.83,0-1.24,0
			c-0.27,0-0.53,0-0.8,0c-0.08,0-0.11-0.02-0.11-0.11c0-0.7,0-1.4,0-2.1c0-0.09,0.03-0.11,0.12-0.11c0.52,0,1.04,0,1.56,0
			c0.1,0,0.12-0.02,0.12-0.12c-0.01-0.3-0.01-0.59,0-0.89c0-0.09-0.03-0.11-0.12-0.11c-0.52,0-1.03,0-1.55,0
			c-0.11,0-0.14-0.03-0.14-0.14c0-0.65,0-1.31,0-1.96c0-0.04-0.03-0.1,0.03-0.12c0,0.68,0,1.37,0,2.05c0,0.11,0.02,0.15,0.14,0.15
			c0.5-0.01,1.01,0,1.51-0.01c0.14,0,0.17,0.04,0.16,0.17c-0.01,0.29-0.01,0.58,0,0.88c0,0.11-0.03,0.15-0.15,0.15
			c-0.51,0-1.02,0-1.52,0c-0.1,0-0.14,0.02-0.14,0.13c0.01,0.66,0,1.32,0,1.99c0,0.1,0.03,0.13,0.13,0.13c0.66,0,1.32,0,1.97,0
			c0.17,0,0.17,0,0.17,0.16c0,0.29,0,0.58,0,0.88C38.38,16.39,38.41,16.45,38.32,16.46z"/>
		<path class="st6" d="M45.1,16.41c0-0.05,0.01-0.1,0.01-0.15c0-2.5,0-5,0-7.49c0-0.13-0.03-0.17-0.16-0.17
			c-0.29,0.01-0.58,0.01-0.86,0c-0.12,0-0.14,0.03-0.14,0.14c0,1.43,0,2.86,0,4.28c0,0.05,0,0.1,0,0.15c-0.01,0-0.02,0-0.03,0
			c-0.04-0.13-0.07-0.27-0.11-0.4c-0.07-0.27-0.14-0.53-0.21-0.8c-0.01-0.04-0.03-0.09-0.05-0.13c0-0.02,0.01-0.04,0.03-0.05
			c0.12,0.36,0.2,0.73,0.3,1.1c0.01,0.04,0.01,0.08,0.05,0.12c0-0.06,0-0.1,0-0.15c0-1.37,0-2.74,0-4.11c0-0.21-0.02-0.18,0.19-0.18
			c0.3,0,0.6,0,0.9,0c0.1,0,0.12,0.03,0.12,0.13c0,2.53,0,5.06,0,7.6C45.14,16.33,45.17,16.38,45.1,16.41z"/>
		<path class="st6" d="M38.32,9.67c0.04-0.19,0.01-0.39,0.02-0.58c0-0.15,0-0.3,0-0.45c0-0.08-0.02-0.11-0.11-0.11
			c-0.37,0-0.73,0-1.1,0c-0.74,0-1.49,0-2.23,0c-0.11,0-0.15,0.02-0.15,0.14c0,2.55,0,5.1,0,7.65c0,0.05-0.01,0.09,0.01,0.14
			c-0.05-0.03-0.03-0.08-0.03-0.12c0-2.57,0-5.14,0-7.71c0-0.1,0.03-0.12,0.12-0.12c1.13,0,2.25,0,3.38,0
			c0.11,0,0.14,0.04,0.14,0.14c-0.01,0.3,0,0.6,0,0.9C38.38,9.6,38.4,9.67,38.32,9.67z"/>
		<path class="st6" d="M43.52,11.69c-0.07-0.07-0.06-0.17-0.08-0.25c-0.12-0.43-0.21-0.87-0.35-1.29c-0.16-0.48-0.26-0.97-0.4-1.45
			c-0.02-0.08-0.06-0.11-0.14-0.11c-0.47,0-0.94,0-1.41,0c-0.09,0-0.12,0.02-0.12,0.11c0,2.54,0,5.07,0,7.61
			c0,0.03,0.01,0.06,0.01,0.09c-0.05-0.02-0.04-0.07-0.04-0.11c0-2.53,0-5.07,0-7.6c0-0.09,0.02-0.13,0.12-0.13
			c0.48,0,0.96,0,1.44,0c0.08,0,0.13,0.02,0.15,0.11c0.1,0.39,0.18,0.78,0.31,1.16c0.17,0.5,0.28,1.02,0.43,1.53
			C43.48,11.47,43.49,11.58,43.52,11.69z"/>
		<path class="st6" d="M33.5,9.06c-0.37-0.35-0.82-0.51-1.32-0.52c-0.72-0.01-1.45,0-2.17-0.01c-0.09,0-0.11,0.03-0.1,0.11
			c0.01,0.16,0,0.32,0,0.48c0,2.39,0,4.78,0,7.17c0,0.06-0.01,0.11,0.01,0.17c-0.05-0.03-0.03-0.08-0.03-0.12c0-2.57,0-5.13,0-7.7
			c0-0.1,0.02-0.13,0.13-0.13c0.75,0,1.51-0.01,2.26,0.01c0.33,0.01,0.66,0.08,0.94,0.29c0.07,0.05,0.17,0.07,0.22,0.15
			C33.46,8.99,33.51,9.01,33.5,9.06z"/>
		<path class="st6" d="M49.31,16c0.39-0.37,0.49-0.86,0.5-1.36c0.01-1.42,0.01-2.84,0-4.27c0-0.31-0.05-0.62-0.18-0.9
			c-0.24-0.52-0.67-0.79-1.21-0.9c-0.54-0.11-1.06-0.06-1.57,0.14c0.16-0.12,0.35-0.15,0.54-0.18c0.37-0.05,0.74-0.06,1.1,0.02
			c0.3,0.07,0.56,0.19,0.8,0.4c0.35,0.31,0.46,0.7,0.53,1.13c0.02,0.15,0.02,0.31,0.02,0.46c0,1.39,0.01,2.78,0,4.17
			c0,0.42-0.11,0.81-0.36,1.16C49.44,15.93,49.39,15.98,49.31,16z"/>
		<path class="st6" d="M22.28,21.73c-0.17,0.11-0.36,0.18-0.55,0.25c-0.44,0.18-0.89,0.33-1.36,0.45c-0.68,0.17-1.38,0.29-2.08,0.33
			c-1.16,0.08-2.3-0.01-3.43-0.27c-0.43-0.1-0.87-0.21-1.27-0.4c0.14,0.01,0.27,0.08,0.4,0.12c0.66,0.21,1.33,0.36,2.01,0.45
			c0.28,0.03,0.55,0.05,0.83,0.08c0.31,0.03,0.62,0.02,0.93,0.02c0.47-0.01,0.93-0.06,1.39-0.12c0.44-0.06,0.87-0.15,1.29-0.26
			c0.4-0.1,0.78-0.24,1.17-0.38C21.84,21.91,22.04,21.78,22.28,21.73z"/>
		<path class="st6" d="M42.17,16.41c0.02-0.05,0.01-0.11,0.01-0.17c0-1.76,0-3.52,0-5.28c0-0.04,0-0.08,0-0.15
			c0.05,0.08,0.07,0.14,0.07,0.2c-0.05,0.05-0.03,0.11-0.03,0.16c0,1.7,0,3.39,0,5.09C42.22,16.31,42.27,16.39,42.17,16.41z"/>
		<path class="st6" d="M14.1,5.24c0.38-0.19,0.79-0.32,1.2-0.43c0.83-0.22,1.68-0.32,2.54-0.29c0.78,0.03,1.55,0.15,2.3,0.38
			c0.47,0.14,0.92,0.32,1.36,0.55c0.04,0.02,0.08,0.03,0.11,0.07c-0.17-0.04-0.32-0.14-0.48-0.21C20.44,5,19.73,4.79,18.99,4.67
			c-0.37-0.06-0.74-0.09-1.12-0.11c-0.99-0.05-1.95,0.1-2.9,0.37c-0.26,0.08-0.52,0.18-0.77,0.28C14.17,5.23,14.14,5.24,14.1,5.24z"
			/>
		<path class="st6" d="M65.85,8.89c0-0.01-0.01-0.01-0.01-0.02C65.74,8.6,65.74,8.6,65.46,8.6c-0.4,0-0.79,0-1.19,0
			c-0.09,0-0.12,0.03-0.12,0.12c0,2.53,0,5.06,0,7.59c0,0.04-0.01,0.08,0.02,0.11c-0.05,0-0.05-0.03-0.05-0.07c0-0.06,0-0.11,0-0.17
			c0-2.48,0-4.96,0-7.44c0-0.17,0-0.17,0.17-0.17c0.43,0,0.86,0,1.29,0c0.21,0,0.21,0,0.26,0.21C65.85,8.81,65.84,8.85,65.85,8.89z"
			/>
		<path class="st6" d="M53.71,12.63c-0.05-0.03-0.01-0.05,0.02-0.06c0.45-0.23,0.68-0.61,0.74-1.1c0.06-0.53,0.06-1.06,0-1.59
			c-0.05-0.43-0.27-0.78-0.64-1.01c-0.25-0.16-0.55-0.23-0.84-0.25c-0.75-0.05-1.5-0.01-2.26-0.02c-0.03,0-0.06,0.01-0.08,0.03
			c0-0.07,0.05-0.06,0.09-0.06c0.7,0,1.39-0.02,2.09,0.01c0.38,0.01,0.77,0.08,1.09,0.31c0.33,0.23,0.5,0.55,0.57,0.94
			c0.08,0.43,0.06,0.87,0.05,1.31c-0.01,0.27-0.04,0.54-0.15,0.79C54.25,12.24,54.02,12.46,53.71,12.63z"/>
		<path class="st6" d="M33.55,15.87c0.31-0.46,0.4-0.98,0.4-1.53c-0.01-1.18,0-2.36,0-3.54c0-0.35-0.01-0.7-0.08-1.04
			c-0.01-0.01-0.01-0.02,0.01-0.03c0.07,0.17,0.09,0.36,0.09,0.54c0.01,1.48,0.01,2.96,0,4.44c0,0.39-0.12,0.75-0.33,1.07
			C33.61,15.82,33.59,15.85,33.55,15.87z"/>
		<path class="st6" d="M27.74,16.46c0-0.05,0.01-0.1,0.01-0.15c0-0.7,0.01-1.39,0-2.09c0-0.25,0.02-0.5,0.11-0.73
			c0.04-0.12,0.08-0.24,0.11-0.36c0.02-0.01,0.04-0.01,0.06,0c-0.1,0.15-0.11,0.34-0.18,0.5c-0.06,0.14-0.06,0.29-0.06,0.44
			c0,0.75,0,1.5,0,2.25C27.79,16.38,27.83,16.45,27.74,16.46z"/>
		<path class="st6" d="M23.95,2.46c-0.14-0.07-0.27-0.14-0.41-0.21c-1.02-0.56-2.11-0.94-3.25-1.2c-0.25-0.06-0.51-0.11-0.77-0.16
			c0.19-0.01,0.37,0.05,0.56,0.08c0.56,0.11,1.12,0.26,1.66,0.45c0.62,0.22,1.23,0.47,1.81,0.8C23.68,2.29,23.84,2.33,23.95,2.46z"
			/>
		<path class="st6" d="M65.28,16.41c0.04-0.05,0.02-0.11,0.02-0.16c0-1.74,0-3.48,0-5.22c0-0.06,0-0.11,0-0.2
			c0.06,0.1,0.08,0.18,0.09,0.26c-0.01-0.02-0.03-0.03-0.05-0.07c0,0.06,0,0.1,0,0.15c0,1.7,0,3.39,0,5.09
			C65.33,16.31,65.37,16.39,65.28,16.41z"/>
		<path class="st7" d="M45.95,10.05c-0.06,1.49-0.01,2.98-0.02,4.46c0,0.21,0.03,0.41,0.07,0.62c-0.02,0.01-0.04,0.01-0.05-0.01
			c-0.01-0.08-0.02-0.17-0.03-0.25c-0.02-0.07,0.01-0.14-0.02-0.21c0-0.7,0-1.39,0-2.09c0-0.73,0-1.47,0-2.2
			c0.03-0.07,0-0.14,0.02-0.21c0-0.04,0.01-0.09,0.01-0.13C45.95,10.02,45.96,10.02,45.95,10.05z"/>
		<path class="st6" d="M14.94,18.7c0.69,0.18,1.39,0.24,2.1,0.21c0.46-0.02,0.92-0.09,1.37-0.19c0.08-0.02,0.13-0.08,0.21-0.07
			c-0.01,0.08-0.08,0.07-0.13,0.08c-0.48,0.12-0.96,0.18-1.45,0.21c-0.69,0.04-1.36-0.05-2.03-0.19c-0.04-0.01-0.07-0.03-0.1-0.04
			C14.92,18.7,14.93,18.7,14.94,18.7z"/>
		<path class="st6" d="M63.32,14.86c0.01-1.57,0.01-3.15,0-4.72c0.05,0.04,0.03,0.09,0.03,0.13c0,1.49,0,2.97,0,4.46
			C63.35,14.78,63.36,14.83,63.32,14.86z"/>
		<path class="st6" d="M59.43,10.14c-0.01,1.57-0.01,3.15,0,4.72c-0.05-0.04-0.03-0.09-0.03-0.13c0-1.49,0-2.97,0-4.46
			C59.4,10.23,59.38,10.18,59.43,10.14z"/>
		<path class="st6" d="M54.64,16.41c-0.02-0.16-0.09-0.3-0.1-0.46c-0.04-0.54-0.01-1.07-0.02-1.61c0-0.24-0.01-0.47-0.05-0.71
			c-0.05-0.26-0.13-0.5-0.32-0.7c0.15,0.04,0.19,0.18,0.24,0.3c0.12,0.27,0.16,0.56,0.16,0.86c0,0.45,0,0.89,0,1.34
			c0,0.3,0,0.61,0.12,0.89C54.68,16.35,54.68,16.39,54.64,16.41z"/>
		<path class="st6" d="M62.72,8.91c-0.69-0.47-1.44-0.48-2.21-0.26c-0.13,0.04-0.25,0.11-0.36,0.19c-0.04,0.03-0.08,0.06-0.14,0.07
			c0.13-0.15,0.31-0.23,0.5-0.29c0.46-0.15,0.93-0.16,1.4-0.08c0.25,0.04,0.48,0.14,0.7,0.27C62.67,8.82,62.71,8.86,62.72,8.91z"/>
		<path class="st6" d="M51.93,16.41c0.03-0.05,0.02-0.1,0.02-0.15c0-0.96,0-1.92,0-2.88c0-0.11,0.02-0.16,0.14-0.15
			c0.15,0.01,0.3-0.02,0.45,0.02c-0.15,0-0.29,0.01-0.44,0c-0.09,0-0.12,0.03-0.12,0.12c0,0.51,0,1.02,0,1.53c0,0.46,0,0.92,0,1.38
			C51.98,16.33,52.01,16.4,51.93,16.41z"/>
		<path class="st6" d="M17.57,9.62c-0.89-0.35-1.77-0.36-2.66,0c0.09-0.1,0.22-0.12,0.34-0.16c0.34-0.1,0.69-0.15,1.04-0.15
			c0.39,0.01,0.76,0.09,1.13,0.21C17.48,9.55,17.54,9.57,17.57,9.62z"/>
		<path class="st6" d="M28.98,9.96c0.12-0.43,0.24-0.85,0.37-1.28c0.03-0.1,0.04-0.15-0.1-0.14c-0.33,0.01-0.66,0-0.99,0
			c-0.06,0-0.11,0-0.13,0.07c-0.01-0.07,0.02-0.09,0.09-0.09c0.37,0,0.74,0,1.11,0c0.07,0,0.1,0.02,0.08,0.1
			c-0.14,0.47-0.28,0.93-0.43,1.4C28.97,10,28.97,9.98,28.98,9.96z"/>
		<path class="st6" d="M17.5,14.94c-0.29,0.15-0.61,0.23-0.93,0.27c-0.55,0.06-1.09-0.01-1.59-0.27c0.17,0.02,0.32,0.11,0.49,0.15
			c0.41,0.1,0.82,0.13,1.24,0.06c0.25-0.04,0.48-0.12,0.71-0.2C17.44,14.95,17.47,14.95,17.5,14.94z"/>
		<path class="st6" d="M26.5,9.78c-0.1-0.38-0.2-0.75-0.3-1.13c-0.02-0.09-0.06-0.11-0.15-0.11c-0.38,0.01-0.76,0-1.14,0
			c-0.04,0-0.09-0.02-0.12,0.03c-0.02-0.1,0.06-0.05,0.08-0.05c0.28,0,0.57,0,0.85,0c0.06,0,0.13,0,0.19,0c0.28,0,0.27,0,0.34,0.26
			c0.07,0.29,0.16,0.58,0.23,0.87c0.01,0.05,0.06,0.09,0.06,0.14C26.54,9.8,26.52,9.8,26.5,9.78z"/>
		<path class="st6" d="M15.27,0.91c-0.1,0.06-0.21,0.06-0.31,0.08c-0.55,0.11-1.09,0.26-1.62,0.43c-0.02,0.01-0.04,0.01-0.06,0.01
			c0.03-0.06,0.1-0.05,0.16-0.07c0.56-0.2,1.14-0.32,1.72-0.44C15.2,0.9,15.24,0.91,15.27,0.91z"/>
		<path class="st6" d="M23.5,20.05c0.18-0.15,0.36-0.31,0.55-0.45c0.17-0.12,0.31-0.27,0.46-0.41c0.07-0.06,0.17-0.09,0.19-0.19
			c0.06,0.03,0.02,0.06,0,0.07c-0.21,0.16-0.37,0.38-0.59,0.53c-0.19,0.13-0.34,0.31-0.54,0.42C23.55,20.04,23.53,20.05,23.5,20.05z
			"/>
		<path class="st6" d="M26.99,11.56c-0.14-0.56-0.29-1.12-0.43-1.68c-0.01-0.02-0.01-0.04,0-0.05c0.1,0.37,0.2,0.75,0.3,1.12
			c0.05,0.18,0.09,0.36,0.13,0.53c0.01,0.03,0.04,0.05,0.05,0.07C27.03,11.58,27.01,11.58,26.99,11.56z"/>
		<path class="st6" d="M28.03,13.03c0.15-0.5,0.29-1,0.44-1.49c0.02-0.02,0.03-0.02,0.05,0c-0.2,0.51-0.3,1.04-0.49,1.55
			C28.01,13.07,28.01,13.05,28.03,13.03z"/>
		<path class="st6" d="M28.52,11.43c0.12-0.43,0.25-0.86,0.38-1.29c0.01-0.01,0.02-0.01,0.03,0c-0.13,0.44-0.26,0.88-0.39,1.32
			c0,0.02-0.01,0.03-0.02,0.04C28.49,11.48,28.5,11.46,28.52,11.43z"/>
		<path class="st6" d="M53.2,14.03c0.01,0.04,0.02,0.07,0.02,0.11c0,0.56,0,1.12,0,1.68c-0.03-0.03-0.02-0.06-0.02-0.1
			C53.2,15.16,53.2,14.59,53.2,14.03z"/>
		<path class="st6" d="M25.74,21.23c0.16-0.19,0.37-0.33,0.54-0.5c0.09-0.09,0.12-0.15,0-0.23c-0.02-0.01-0.03-0.04-0.05-0.06
			c0.19,0.06,0.23,0.16,0.09,0.29c-0.16,0.16-0.33,0.31-0.49,0.47C25.81,21.22,25.78,21.24,25.74,21.23z"/>
		<path class="st6" d="M25.1,4.93c0.13-0.18,0.29-0.33,0.45-0.48c0.11-0.1,0.18-0.24,0.3-0.33c-0.05,0.13-0.14,0.24-0.24,0.32
			c-0.16,0.15-0.31,0.31-0.47,0.45C25.14,4.91,25.12,4.92,25.1,4.93z"/>
		<path class="st6" d="M5.17,12.13c0,0.24,0,0.48,0,0.72c-0.04-0.01-0.05-0.03-0.05-0.06c0-0.2,0-0.4,0-0.59
			C5.12,12.16,5.14,12.13,5.17,12.13z"/>
		<path class="st6" d="M12.41,1.76c-0.26,0.14-0.53,0.26-0.8,0.38c0.07-0.08,0.18-0.12,0.28-0.16C12.06,1.91,12.22,1.79,12.41,1.76z
			"/>
		<path class="st6" d="M20.48,16.23c0.17-0.19,0.17-0.19-0.02-0.37c-0.06-0.06-0.13-0.13-0.19-0.19c0.09,0,0.12,0.09,0.18,0.13
			c0.04,0.03,0.08,0.08,0.12,0.12C20.72,16.06,20.69,16.15,20.48,16.23z"/>
		<path class="st6" d="M9.58,5.49c0.17-0.2,0.36-0.4,0.58-0.55c-0.07,0.15-0.23,0.21-0.33,0.33C9.75,5.36,9.68,5.45,9.58,5.49z"/>
		<path class="st6" d="M16.17,6.89c0.2-0.05,0.4-0.03,0.59-0.03c0.16,0,0.31-0.02,0.47,0.03C16.88,6.89,16.53,6.89,16.17,6.89z"/>
		<path class="st6" d="M20.14,9.11C20.21,9,20.32,8.94,20.4,8.85c0.07-0.08,0.08-0.12-0.01-0.19c-0.03-0.02-0.05-0.05-0.07-0.07
			c0.09,0,0.12,0.08,0.17,0.12c0.03,0.03,0.02,0.06-0.01,0.09C20.38,8.91,20.29,9.05,20.14,9.11z"/>
		<path class="st6" d="M23.91,6.17c0.1-0.16,0.27-0.24,0.38-0.39c0.03-0.04,0.08-0.06,0.08-0.12c0.07,0.04,0.01,0.08-0.01,0.1
			C24.23,5.91,24.08,6.05,23.91,6.17z"/>
		<path class="st6" d="M21.02,8.2c0.06-0.11,0.16-0.17,0.25-0.25c0.09-0.08,0.11-0.14,0-0.22c-0.02-0.01-0.03-0.03-0.04-0.05
			c0.18,0.06,0.2,0.15,0.07,0.28C21.22,8.06,21.12,8.14,21.02,8.2z"/>
		<path class="st6" d="M23.39,6.68c0.14-0.19,0.34-0.32,0.5-0.5c-0.01,0.11-0.1,0.15-0.17,0.22C23.62,6.5,23.52,6.6,23.39,6.68z"/>
		<path class="st6" d="M14.06,18.4c0.23,0.1,0.48,0.13,0.7,0.26C14.52,18.57,14.27,18.54,14.06,18.4z"/>
		<path class="st6" d="M33.8,9.65c-0.07-0.21-0.18-0.41-0.31-0.59c0.17,0.11,0.21,0.29,0.29,0.45c0.02,0.05,0.03,0.1,0.08,0.14
			C33.84,9.67,33.82,9.67,33.8,9.65z"/>
		<path class="st6" d="M26.16,20.37c-0.19-0.12-0.34-0.29-0.49-0.45c0.03,0,0.05,0.01,0.07,0.02
			C25.88,20.09,26.02,20.23,26.16,20.37z"/>
		<path class="st6" d="M13.13,21.91c-0.21-0.07-0.42-0.16-0.6-0.28C12.73,21.7,12.94,21.79,13.13,21.91z"/>
		<path class="st6" d="M63.19,9.56c-0.08-0.18-0.19-0.35-0.31-0.5C63.07,9.17,63.14,9.36,63.19,9.56z"/>
		<path class="st6" d="M18.63,18.65c0.22-0.07,0.42-0.16,0.65-0.21C19.07,18.54,18.86,18.63,18.63,18.65z"/>
		<path class="st6" d="M7.68,12.1c0,0.27,0,0.53,0,0.8c-0.05-0.11-0.02-0.22-0.02-0.33C7.66,12.42,7.63,12.26,7.68,12.1z"/>
		<path class="st6" d="M20.2,15.62c-0.15-0.1-0.15-0.1-0.28,0.03c-0.04,0.04-0.07,0.09-0.13,0.09c0.05-0.05,0.09-0.11,0.14-0.16
			C20.07,15.45,20.1,15.45,20.2,15.62z"/>
		<path class="st6" d="M16.38,8.15c0.25-0.04,0.51-0.04,0.76,0C16.88,8.15,16.63,8.15,16.38,8.15z"/>
		<path class="st6" d="M27.2,12c0,0.04-0.01,0.07-0.05,0.13c-0.04-0.16-0.08-0.31-0.11-0.46c-0.01-0.02-0.01-0.04,0.01-0.06
			c0.05,0.11,0.06,0.23,0.1,0.35C27.16,12,27.16,12.02,27.2,12z"/>
		<path class="st6" d="M24.54,18.85c-0.15-0.1-0.23-0.26-0.36-0.37c0.08,0,0.11,0.06,0.15,0.11C24.4,18.67,24.48,18.75,24.54,18.85z
			"/>
		<path class="st6" d="M11.34,12.16c0,0.23,0,0.46,0,0.69C11.31,12.62,11.31,12.39,11.34,12.16z"/>
		<path class="st6" d="M13.69,15.73c-0.13-0.1-0.25-0.23-0.37-0.34C13.48,15.46,13.6,15.58,13.69,15.73z"/>
		<path class="st6" d="M17.11,16.83c-0.24,0.04-0.47,0.04-0.71,0C16.64,16.83,16.87,16.83,17.11,16.83z"/>
		<path class="st6" d="M16.41,17.63c0.23,0,0.46,0,0.69,0C16.87,17.66,16.64,17.66,16.41,17.63z"/>
		<path class="st6" d="M17.16,24.23c0.22,0,0.45,0,0.67,0C17.6,24.27,17.38,24.27,17.16,24.23z"/>
		<path class="st6" d="M17.06,18.09c-0.23,0.04-0.45,0.04-0.68,0C16.6,18.09,16.83,18.09,17.06,18.09z"/>
		<path class="st6" d="M17.08,7.33c-0.22,0-0.43,0-0.65,0c0.16-0.06,0.32-0.02,0.48-0.03C16.97,7.3,17.03,7.28,17.08,7.33z"/>
		<path class="st6" d="M17.03,6.06c-0.21,0-0.41,0-0.62,0C16.61,6.02,16.82,6.02,17.03,6.06z"/>
		<path class="st6" d="M13.61,5.47c0.14-0.09,0.29-0.16,0.45-0.21C13.92,5.35,13.77,5.42,13.61,5.47z"/>
		<path class="st6" d="M17.17,2.19c0.2-0.03,0.41-0.03,0.61,0C17.58,2.19,17.38,2.19,17.17,2.19z"/>
		<path class="st6" d="M60.02,8.91c-0.1,0.11-0.19,0.22-0.29,0.34C59.79,9.1,59.87,8.97,60.02,8.91z"/>
		<path class="st6" d="M17.78,0.73c-0.2,0-0.4,0-0.6,0C17.38,0.68,17.58,0.68,17.78,0.73z"/>
		<path class="st6" d="M11.49,7.02c0.09-0.12,0.2-0.22,0.32-0.32C11.73,6.83,11.62,6.93,11.49,7.02z"/>
		<path class="st8" d="M27.53,10.86c-0.01,0.1-0.04,0.19-0.11,0.27c0.02-0.09,0.04-0.17,0.06-0.26
			C27.5,10.85,27.51,10.85,27.53,10.86z"/>
		<path class="st6" d="M17.83,20.46c-0.18,0.03-0.36,0.03-0.55,0C17.47,20.46,17.65,20.46,17.83,20.46z"/>
		<path class="st6" d="M18.37,0.75c-0.18,0-0.37,0-0.55-0.03c0.15,0,0.31,0,0.46,0C18.31,0.72,18.35,0.72,18.37,0.75z"/>
		<path class="st6" d="M13.07,8.7C13,8.81,12.89,8.87,12.79,8.95C12.85,8.82,12.97,8.77,13.07,8.7z"/>
		<path class="st6" d="M16.54,14.58c-0.19,0.04-0.37,0.04-0.56,0C16.17,14.58,16.35,14.58,16.54,14.58z"/>
		<path class="st6" d="M17.16,0.73c-0.18,0.03-0.37,0.02-0.55,0.03c0.1-0.06,0.21-0.02,0.31-0.03C17,0.72,17.08,0.73,17.16,0.73z"/>
		<path class="st6" d="M59.74,9.24c-0.04,0.09-0.09,0.18-0.13,0.27c-0.01,0.03-0.02,0.04-0.06,0.03C59.6,9.44,59.64,9.32,59.74,9.24
			z"/>
		<path class="st6" d="M12.8,1.6c-0.12,0.07-0.25,0.13-0.39,0.16C12.53,1.69,12.65,1.62,12.8,1.6z"/>
		<path class="st6" d="M15.99,14.99c0.17,0,0.34,0,0.52,0C16.34,15.03,16.17,15.04,15.99,14.99z"/>
		<path class="st6" d="M47.62,16.49c0.17,0,0.34,0,0.52,0C47.97,16.53,47.8,16.53,47.62,16.49z"/>
		<path class="st6" d="M61.13,16.49c0.17,0,0.34,0,0.52,0C61.47,16.53,61.3,16.53,61.13,16.49z"/>
		<path class="st6" d="M16.51,9.98c-0.17,0-0.34,0-0.51,0C16.17,9.95,16.34,9.95,16.51,9.98z"/>
		<path class="st6" d="M33.29,16.1c0.1-0.06,0.17-0.16,0.26-0.23C33.5,15.99,33.43,16.08,33.29,16.1z"/>
		<path class="st6" d="M20.39,20c-0.12,0.08-0.26,0.1-0.4,0.13C20.12,20.05,20.26,20.04,20.39,20z"/>
		<path class="st6" d="M9.2,12.76c-0.03-0.17-0.03-0.34,0-0.51C9.2,12.42,9.2,12.59,9.2,12.76z"/>
		<path class="st6" d="M19.76,21.7c0.13-0.05,0.27-0.08,0.42-0.1C20.05,21.66,19.91,21.69,19.76,21.7z"/>
		<path class="st6" d="M23.01,20.38c0.08-0.09,0.19-0.12,0.29-0.18C23.24,20.31,23.12,20.34,23.01,20.38z"/>
		<path class="st6" d="M15.12,16.56c-0.11-0.05-0.23-0.1-0.34-0.15C14.9,16.43,15.03,16.46,15.12,16.56z"/>
		<path class="st6" d="M18.3,20.44c-0.15,0.03-0.31,0.03-0.47,0.03C17.98,20.4,18.14,20.45,18.3,20.44z"/>
		<path class="st6" d="M14.06,12.73c-0.04-0.16-0.03-0.32,0-0.48C14.06,12.41,14.06,12.57,14.06,12.73z"/>
		<path class="st6" d="M23.89,18.23c-0.09-0.08-0.18-0.16-0.27-0.24C23.76,18.02,23.82,18.13,23.89,18.23z"/>
		<path class="st6" d="M21.94,5.7c0.11,0.05,0.21,0.11,0.31,0.18C22.12,5.86,22.02,5.8,21.94,5.7z"/>
		<path class="st6" d="M65.98,9.27c-0.04-0.09-0.07-0.19-0.11-0.28C65.99,9.05,65.96,9.16,65.98,9.27z"/>
		<path class="st6" d="M17.29,20.47c-0.15,0-0.3,0.01-0.44-0.03C16.99,20.45,17.14,20.4,17.29,20.47z"/>
		<path class="st6" d="M14.8,14.1c-0.09-0.07-0.17-0.15-0.24-0.24C14.67,13.92,14.75,14,14.8,14.1z"/>
		<path class="st6" d="M22.03,20.92c0.1-0.07,0.21-0.11,0.32-0.15C22.26,20.87,22.14,20.89,22.03,20.92z"/>
		<path class="st6" d="M21.62,21.11c0.11-0.04,0.2-0.11,0.32-0.13C21.84,21.04,21.74,21.11,21.62,21.11z"/>
		<path class="st6" d="M24.88,5c0.05,0.02,0.1,0.03,0.14-0.02c0.02-0.03,0.04-0.06,0.09-0.06C25.03,5.07,24.95,5.1,24.88,5z"/>
		<path class="st6" d="M24.54,4.72c0.11,0.02,0.17,0.1,0.23,0.18C24.67,4.87,24.62,4.78,24.54,4.72z"/>
		<path class="st6" d="M21.03,16.4c-0.12,0-0.14,0.13-0.23,0.16c0.02-0.08,0.1-0.12,0.15-0.18C20.97,16.35,21.01,16.35,21.03,16.4z"
			/>
		<path class="st6" d="M25.49,21.44c0.06-0.08,0.16-0.12,0.23-0.19C25.67,21.35,25.61,21.43,25.49,21.44z"/>
		<path class="st6" d="M13.78,18.27c0.1,0.03,0.2,0.06,0.29,0.12C13.96,18.38,13.85,18.35,13.78,18.27z"/>
		<path class="st6" d="M12.97,12.31c0,0.13,0,0.26,0,0.39C12.93,12.57,12.93,12.44,12.97,12.31z"/>
		<path class="st6" d="M13.08,1.5c-0.09,0.06-0.19,0.08-0.29,0.1C12.87,1.52,12.98,1.51,13.08,1.5z"/>
		<path class="st6" d="M19.83,20.18c-0.11,0.04-0.23,0.07-0.35,0.08C19.59,20.21,19.7,20.17,19.83,20.18z"/>
		<path class="st6" d="M46.57,8.88C46.52,8.96,46.43,9,46.36,9.06C46.39,8.95,46.47,8.91,46.57,8.88z"/>
		<path class="st6" d="M16.05,15.61c0.13,0,0.26,0,0.39,0C16.3,15.65,16.18,15.65,16.05,15.61z"/>
		<path class="st6" d="M19.84,8.24c-0.09-0.05-0.19-0.08-0.26-0.16C19.68,8.11,19.78,8.13,19.84,8.24z"/>
		<path class="st6" d="M10.86,19.45c0.07,0.05,0.15,0.08,0.2,0.16C10.97,19.59,10.91,19.53,10.86,19.45z"/>
		<path class="st6" d="M25.98,3.96c-0.08-0.05-0.14-0.12-0.21-0.19C25.88,3.8,25.94,3.87,25.98,3.96z"/>
		<path class="st9" d="M45.95,10.05c-0.01-0.01-0.01-0.02-0.02-0.03c-0.03-0.05,0.04-0.08,0.02-0.12c0.01-0.02,0.03-0.02,0.05-0.01
			C45.99,9.94,46.02,10.01,45.95,10.05z"/>
		<path class="st6" d="M59.6,15.51c0.05,0.08,0.1,0.17,0.13,0.26C59.65,15.7,59.61,15.61,59.6,15.51z"/>
		<path class="st6" d="M52.68,13.29c0.1,0.01,0.19,0.02,0.25,0.11C52.85,13.36,52.76,13.34,52.68,13.29z"/>
		<path class="st6" d="M63.03,15.76c0.04-0.09,0.09-0.17,0.13-0.26C63.15,15.61,63.12,15.7,63.03,15.76z"/>
		<path class="st6" d="M23.3,20.2c0.06-0.06,0.13-0.12,0.21-0.16C23.46,20.13,23.39,20.18,23.3,20.2z"/>
		<path class="st6" d="M66.05,9.56c-0.04-0.09-0.07-0.19-0.08-0.29C66.04,9.35,66.05,9.45,66.05,9.56z"/>
		<path class="st6" d="M10.47,19.1c0.09,0.01,0.13,0.09,0.18,0.15C10.57,19.22,10.52,19.16,10.47,19.1z"/>
		<path class="st6" d="M17.85,21.93c0.11-0.03,0.23-0.02,0.34-0.02C18.08,21.96,17.96,21.92,17.85,21.93z"/>
		<path class="st6" d="M24.18,2.59c-0.09-0.03-0.17-0.06-0.23-0.13C24.03,2.48,24.11,2.52,24.18,2.59z"/>
		<path class="st6" d="M22.43,6.01c0.08,0.04,0.16,0.08,0.2,0.16C22.55,6.13,22.47,6.09,22.43,6.01z"/>
		<path class="st6" d="M16.92,21.91c0.11,0,0.23-0.01,0.34,0.02C17.15,21.92,17.04,21.96,16.92,21.91z"/>
		<path class="st6" d="M21.57,16.95c0.01-0.09-0.09-0.11-0.13-0.18c0.08,0,0.11,0.07,0.16,0.12C21.63,16.93,21.59,16.94,21.57,16.95
			z"/>
		<path class="st6" d="M6.7,12.68c-0.02-0.12-0.02-0.23,0-0.35C6.7,12.44,6.7,12.56,6.7,12.68z"/>
		<path class="st6" d="M16.62,0.75c-0.11,0.03-0.22,0.03-0.34,0.03C16.39,0.72,16.5,0.76,16.62,0.75z"/>
		<path class="st6" d="M14.93,14.93c-0.08-0.02-0.15-0.05-0.21-0.11C14.8,14.83,14.89,14.84,14.93,14.93z"/>
		<path class="st6" d="M19.47,21.75c0.09-0.03,0.19-0.06,0.29-0.05C19.67,21.75,19.57,21.76,19.47,21.75z"/>
		<path class="st6" d="M18.68,0.78c-0.1,0-0.21,0-0.31-0.03C18.47,0.76,18.58,0.72,18.68,0.78z"/>
		<path class="st10" d="M25.04,9.39c0.07-0.01,0.08,0,0.06,0.1C25.06,9.47,25.03,9.44,25.04,9.39z"/>
		<path class="st6" d="M17.41,7.36c-0.11,0-0.21,0.01-0.32-0.03C17.2,7.34,17.31,7.3,17.41,7.36z"/>
		<path class="st6" d="M20.3,8.58c-0.07-0.04-0.14-0.06-0.18-0.14C20.2,8.46,20.27,8.5,20.3,8.58z"/>
		<path class="st6" d="M16.63,2.22c0.1-0.03,0.21-0.02,0.32-0.02C16.85,2.25,16.74,2.21,16.63,2.22z"/>
		<path class="st11" d="M28.93,10.14c-0.01,0-0.02,0-0.03,0c0.02-0.06,0-0.15,0.08-0.18c0,0.02,0,0.04,0,0.05
			C28.98,10.06,28.91,10.08,28.93,10.14z"/>
		<path class="st6" d="M21.1,17.36c0.04-0.07,0.12-0.09,0.18-0.14C21.25,17.31,21.19,17.35,21.1,17.36z"/>
		<path class="st6" d="M22.8,20.51c0.06-0.05,0.13-0.1,0.21-0.13C22.96,20.46,22.89,20.5,22.8,20.51z"/>
		<path class="st6" d="M24.31,5.59c-0.07-0.05-0.13-0.1-0.18-0.17C24.22,5.44,24.27,5.51,24.31,5.59z"/>
		<path class="st6" d="M13.36,5.6c0.06-0.05,0.14-0.08,0.21-0.1C13.52,5.57,13.44,5.6,13.36,5.6z"/>
		<path class="st6" d="M16.85,20.44c-0.1,0-0.19,0.01-0.29-0.03C16.66,20.42,16.76,20.38,16.85,20.44z"/>
		<path class="st6" d="M19.45,18.37c0.06-0.05,0.13-0.08,0.21-0.1C19.61,18.34,19.54,18.37,19.45,18.37z"/>
		<path class="st6" d="M24.74,20.13c-0.05,0.06-0.08,0.13-0.18,0.13C24.63,20.22,24.66,20.14,24.74,20.13z"/>
		<path class="st6" d="M17.33,14.78c0.07-0.04,0.13-0.08,0.21-0.1C17.49,14.75,17.42,14.78,17.33,14.78z"/>
		<path class="st6" d="M22.74,21.5c-0.06,0.06-0.14,0.07-0.22,0.1C22.58,21.52,22.66,21.51,22.74,21.5z"/>
		<path class="st6" d="M15.89,20.31c-0.09,0-0.18-0.02-0.26-0.05C15.72,20.25,15.81,20.27,15.89,20.31z"/>
		<path class="st6" d="M21.6,5.52c0.08,0.02,0.15,0.04,0.21,0.11C21.73,5.6,21.65,5.59,21.6,5.52z"/>
		<path class="st6" d="M11.56,2.17c-0.06,0.06-0.14,0.07-0.22,0.1C11.4,2.19,11.48,2.19,11.56,2.17z"/>
		<path class="st6" d="M22.24,5.88c0.07,0.03,0.13,0.07,0.18,0.13C22.35,5.99,22.28,5.95,22.24,5.88z"/>
		<path class="st6" d="M23.2,6.61c0.08,0,0.09,0.12,0.18,0.09c-0.02,0.06-0.06,0.04-0.09,0.01C23.26,6.68,23.23,6.64,23.2,6.61z"/>
		<path class="st6" d="M62.88,9.06c-0.05-0.05-0.1-0.1-0.16-0.16C62.81,8.92,62.86,8.97,62.88,9.06z"/>
		<path class="st6" d="M16.41,7.33c-0.09,0.04-0.19,0.02-0.29,0.03C16.22,7.3,16.32,7.34,16.41,7.33z"/>
		<path class="st6" d="M18.03,2.2c0.1,0,0.2-0.01,0.29,0.02C18.23,2.21,18.13,2.25,18.03,2.2z"/>
		<path class="st6" d="M21.23,16.57c-0.06-0.03-0.12-0.07-0.16-0.13C21.15,16.46,21.23,16.48,21.23,16.57z"/>
		<path class="st6" d="M12.18,12.44c0-0.1-0.02-0.19,0.02-0.29C12.19,12.24,12.22,12.34,12.18,12.44z"/>
		<path class="st6" d="M10.26,4.85c0.05-0.05,0.1-0.1,0.16-0.14C10.38,4.78,10.34,4.84,10.26,4.85z"/>
		<path class="st6" d="M15.4,21.7c0.08,0.01,0.16,0.01,0.23,0.05C15.55,21.75,15.47,21.75,15.4,21.7z"/>
		<path class="st6" d="M17.23,6.89c0.09,0,0.18-0.01,0.26,0.03C17.41,6.9,17.32,6.95,17.23,6.89z"/>
		<path class="st6" d="M25.17,21.7c0.05-0.05,0.1-0.1,0.16-0.13C25.3,21.63,25.26,21.7,25.17,21.7z"/>
		<path class="st6" d="M46.85,8.7c-0.05,0.05-0.12,0.08-0.18,0.11C46.71,8.73,46.78,8.71,46.85,8.7z"/>
		<path class="st12" d="M43.01,13.78c0.1-0.03,0.05,0.05,0.06,0.09c-0.02,0.01-0.04,0.01-0.05-0.01
			C43.02,13.83,42.99,13.81,43.01,13.78z"/>
		<path class="st6" d="M18.01,14.08c-0.05-0.04-0.1-0.08-0.15-0.12C17.95,13.94,17.97,14.02,18.01,14.08z"/>
		<path class="st6" d="M16.12,10.37c0.09-0.02,0.18-0.02,0.28,0C16.3,10.37,16.21,10.37,16.12,10.37z"/>
		<path class="st6" d="M12.2,12.85c-0.04-0.08-0.02-0.17-0.02-0.26C12.22,12.68,12.19,12.77,12.2,12.85z"/>
		<path class="st6" d="M18.21,3.07c-0.09,0-0.18,0.01-0.27-0.02C18.04,3.05,18.13,3.02,18.21,3.07z"/>
		<path class="st13" d="M14.94,18.7c-0.01,0-0.02,0-0.03,0.01c-0.04-0.01-0.09,0.01-0.1-0.05C14.85,18.66,14.92,18.63,14.94,18.7z"
			/>
		<path class="st6" d="M18.94,0.8c-0.09,0-0.18,0.01-0.26-0.03C18.76,0.79,18.86,0.75,18.94,0.8z"/>
		<path class="st6" d="M18.55,20.41c-0.08,0.03-0.17,0.03-0.26,0.03C18.37,20.38,18.47,20.42,18.55,20.41z"/>
		<path class="st6" d="M14.62,16.34c-0.06-0.03-0.13-0.05-0.18-0.11C14.51,16.25,14.59,16.26,14.62,16.34z"/>
		<path class="st6" d="M21.16,7.65C21.09,7.61,21.04,7.57,21,7.51C21.08,7.52,21.12,7.58,21.16,7.65z"/>
		<path class="st6" d="M53.23,16.01c0.07,0.03,0.04,0.09,0.05,0.14C53.19,16.13,53.24,16.06,53.23,16.01z"/>
		<path class="st6" d="M20.89,21.39c0.07-0.04,0.14-0.07,0.22-0.08C21.05,21.37,20.97,21.39,20.89,21.39z"/>
		<path class="st6" d="M49.14,16.15c0.05-0.05,0.1-0.09,0.16-0.14C49.27,16.08,49.23,16.14,49.14,16.15z"/>
		<path class="st6" d="M25.67,3.68c-0.05-0.04-0.1-0.08-0.16-0.11C25.6,3.56,25.65,3.61,25.67,3.68z"/>
		<path class="st6" d="M25.34,21.57c0.04-0.06,0.09-0.1,0.16-0.13C25.46,21.5,25.42,21.56,25.34,21.57z"/>
		<path class="st6" d="M22.39,20.74c0.06-0.05,0.12-0.08,0.19-0.11C22.54,20.71,22.46,20.73,22.39,20.74z"/>
		<path class="st6" d="M13.29,1.42c-0.06,0.04-0.13,0.07-0.21,0.08C13.13,1.44,13.21,1.43,13.29,1.42z"/>
		<path class="st6" d="M25.47,19.75c-0.05-0.05-0.11-0.09-0.16-0.14C25.39,19.62,25.44,19.68,25.47,19.75z"/>
		<path class="st6" d="M11.09,2.43C11.05,2.48,11,2.51,10.93,2.5C10.97,2.44,11.03,2.44,11.09,2.43z"/>
		<path class="st6" d="M18.13,24.23c0.08-0.03,0.16-0.02,0.24-0.02C18.29,24.25,18.21,24.22,18.13,24.23z"/>
		<path class="st6" d="M16.62,24.21c0.08,0,0.16-0.01,0.24,0.02C16.77,24.22,16.69,24.25,16.62,24.21z"/>
		<path class="st6" d="M59.53,15.38c0.02,0.05,0.08,0.07,0.08,0.13C59.53,15.49,59.53,15.43,59.53,15.38z"/>
		<path class="st6" d="M13.31,21.99c-0.07-0.01-0.13-0.04-0.18-0.08C13.2,21.9,13.26,21.94,13.31,21.99z"/>
		<path class="st6" d="M14.44,16.23c-0.06,0-0.12-0.03-0.16-0.08C14.34,16.17,14.41,16.16,14.44,16.23z"/>
		<path class="st6" d="M19.3,7.93c-0.06-0.01-0.12-0.03-0.16-0.08C19.2,7.86,19.27,7.85,19.3,7.93z"/>
		<path class="st6" d="M15.94,6.92c0.07-0.04,0.16-0.02,0.23-0.03C16.1,6.94,16.02,6.91,15.94,6.92z"/>
		<path class="st6" d="M18.79,20.39c-0.08,0.03-0.15,0.03-0.23,0.03C18.62,20.36,18.71,20.4,18.79,20.39z"/>
		<path class="st6" d="M18.66,16.44c-0.06,0.04-0.12,0.07-0.19,0.08C18.53,16.47,18.59,16.43,18.66,16.44z"/>
		<path class="st6" d="M9.97,12c0,0.08,0.01,0.16-0.02,0.24C9.96,12.16,9.93,12.08,9.97,12z"/>
		<path class="st6" d="M10.46,4.67c0.05-0.04,0.1-0.07,0.16-0.11C10.59,4.63,10.55,4.68,10.46,4.67z"/>
		<path class="st14" d="M43.57,11.79c0,0.02,0,0.04-0.03,0.05c-0.04-0.04-0.04-0.08-0.03-0.13C43.55,11.73,43.57,11.76,43.57,11.79z
			"/>
		<path class="st6" d="M21.39,21.21c0.06-0.04,0.11-0.07,0.18-0.08C21.52,21.18,21.46,21.21,21.39,21.21z"/>
		<path class="st6" d="M16.28,0.78c-0.08,0.03-0.16,0.03-0.23,0.03C16.12,0.75,16.2,0.79,16.28,0.78z"/>
		<path class="st6" d="M19.27,18.45c0.05-0.04,0.11-0.07,0.18-0.08C19.4,18.42,19.35,18.45,19.27,18.45z"/>
		<path class="st6" d="M17.41,6.09c-0.08,0-0.16,0.02-0.24-0.02C17.26,6.07,17.34,6.04,17.41,6.09z"/>
		<path class="st6" d="M16.05,0.8c-0.08,0.03-0.15,0.03-0.23,0.03C15.89,0.77,15.97,0.81,16.05,0.8z"/>
		<path class="st6" d="M17.16,3.05c-0.08,0.03-0.16,0.02-0.24,0.02C17,3.02,17.08,3.05,17.16,3.05z"/>
		<path class="st15" d="M66.88,12.52c-0.06-0.01-0.05-0.06-0.05-0.1C66.9,12.42,66.89,12.47,66.88,12.52z"/>
		<path class="st6" d="M45.91,10.14c0,0.07,0.01,0.14-0.02,0.21C45.9,10.28,45.87,10.21,45.91,10.14z"/>
		<path class="st6" d="M22.57,20.64c0.04-0.05,0.1-0.06,0.16-0.08C22.7,20.63,22.63,20.63,22.57,20.64z"/>
		<path class="st6" d="M9.95,18.53c0.04,0.03,0.09,0.04,0.1,0.1C10,18.62,9.96,18.59,9.95,18.53z"/>
		<path class="st6" d="M12.85,20.8c0.05,0.02,0.12,0.01,0.15,0.07C12.95,20.86,12.88,20.86,12.85,20.8z"/>
		<path class="st6" d="M10.86,2.56c-0.05,0.03-0.09,0.06-0.14,0.1C10.74,2.58,10.8,2.57,10.86,2.56z"/>
		<path class="st6" d="M10.57,20.4c-0.04-0.03-0.09-0.06-0.13-0.09C10.51,20.3,10.55,20.33,10.57,20.4z"/>
		<path class="st6" d="M19.14,0.83c-0.07,0-0.14,0-0.21-0.03C19.01,0.81,19.08,0.77,19.14,0.83z"/>
		<path class="st6" d="M20.77,7.33c-0.06,0-0.1-0.03-0.14-0.08C20.69,7.26,20.74,7.27,20.77,7.33z"/>
		<path class="st6" d="M45.9,14.65c0.02,0.07,0.02,0.14,0.02,0.21C45.87,14.79,45.9,14.72,45.9,14.65z"/>
		<path class="st6" d="M10.13,18.74c0.05,0.03,0.09,0.07,0.11,0.12C10.19,18.83,10.14,18.8,10.13,18.74z"/>
		<path class="st6" d="M11.53,19.97c0.06,0.02,0.09,0.06,0.12,0.11C11.59,20.07,11.56,20.02,11.53,19.97z"/>
		<path class="st16" d="M28.52,11.43c0,0.03,0,0.05,0,0.08c0,0.01,0,0.02,0,0.03c-0.02,0-0.03,0-0.05,0
			C28.47,11.49,28.45,11.44,28.52,11.43z"/>
		<path class="st6" d="M59.42,14.86c0.03,0.07,0.03,0.14,0.03,0.21C59.39,15.01,59.43,14.93,59.42,14.86z"/>
		<path class="st6" d="M16.23,6.07c-0.07,0.04-0.14,0.02-0.21,0.02C16.09,6.04,16.16,6.07,16.23,6.07z"/>
		<path class="st6" d="M63.29,15.07c0-0.07,0-0.14,0.03-0.21C63.31,14.93,63.35,15.01,63.29,15.07z"/>
		<path class="st17" d="M27.05,11.61c0,0.02,0,0.04-0.01,0.06c-0.07-0.01-0.05-0.06-0.05-0.11c0.02,0,0.04,0,0.06,0
			C27.05,11.58,27.05,11.6,27.05,11.61z"/>
		<path class="st6" d="M14.96,21.6c0.06,0,0.13,0.02,0.18,0.05C15.08,21.65,15.02,21.64,14.96,21.6z"/>
		<path class="st6" d="M5.2,11.64c0,0.07,0.01,0.14-0.02,0.21C5.18,11.78,5.16,11.71,5.2,11.64z"/>
		<path class="st6" d="M18.18,14.48c-0.03,0.05-0.06,0.09-0.12,0.1C18.09,14.53,18.12,14.49,18.18,14.48z"/>
		<path class="st6" d="M23.11,22.96c0.06-0.02,0.11-0.05,0.17-0.07C23.24,22.95,23.18,22.97,23.11,22.96z"/>
		<path class="st6" d="M6.7,11.95c0-0.07-0.01-0.14,0.02-0.21C6.72,11.8,6.75,11.88,6.7,11.95z"/>
		<path class="st6" d="M19.35,0.86c-0.07,0-0.14,0.01-0.21-0.03C19.21,0.84,19.29,0.8,19.35,0.86z"/>
		<path class="st6" d="M15.45,14.46c-0.05-0.02-0.11-0.02-0.16-0.06C15.35,14.4,15.42,14.39,15.45,14.46z"/>
		<path class="st6" d="M24.23,4.47c0.06,0.01,0.1,0.05,0.13,0.1C24.29,4.56,24.26,4.51,24.23,4.47z"/>
		<path class="st6" d="M18.42,14.46c-0.04-0.02-0.07-0.08-0.12-0.07C18.39,14.33,18.39,14.42,18.42,14.46z"/>
		<path class="st6" d="M21.1,21.31c0.04-0.04,0.1-0.04,0.16-0.05C21.22,21.32,21.16,21.32,21.1,21.31z"/>
		<path class="st6" d="M59.48,15.2c0.03,0.06,0.05,0.12,0.05,0.18C59.48,15.33,59.47,15.26,59.48,15.2z"/>
		<path class="st6" d="M63.21,15.38c0.02-0.06,0.02-0.13,0.06-0.18C63.27,15.26,63.27,15.33,63.21,15.38z"/>
		<path class="st6" d="M24.39,4.59c0.06,0.01,0.1,0.05,0.13,0.1C24.45,4.69,24.42,4.64,24.39,4.59z"/>
		<path class="st6" d="M11.79,8.08c-0.01,0.06-0.06,0.09-0.11,0.12C11.69,8.14,11.74,8.11,11.79,8.08z"/>
		<path class="st6" d="M20.25,7c-0.06-0.01-0.12-0.04-0.16-0.08C20.16,6.93,20.22,6.94,20.25,7z"/>
		<path class="st6" d="M32.2,16.46c0.07-0.03,0.14-0.03,0.22-0.02C32.35,16.49,32.27,16.45,32.2,16.46z"/>
		<path class="st6" d="M13.28,8.52c-0.03,0.05-0.06,0.09-0.12,0.1C13.19,8.57,13.22,8.53,13.28,8.52z"/>
		<path class="st6" d="M16.35,2.24c0.07-0.03,0.14-0.02,0.21-0.02C16.5,2.27,16.42,2.24,16.35,2.24z"/>
		<path class="st6" d="M21,7.51c-0.06-0.02-0.1-0.06-0.13-0.1C20.94,7.41,20.97,7.46,21,7.51z"/>
		<path class="st6" d="M11.4,19.9c0.05,0.02,0.1,0.03,0.13,0.07C11.47,19.98,11.43,19.95,11.4,19.9z"/>
		<path class="st6" d="M15.74,6.94c0.07-0.04,0.14-0.02,0.21-0.03C15.88,6.97,15.8,6.93,15.74,6.94z"/>
		<path class="st18" d="M26.56,9.83c0,0.02,0,0.04,0,0.05c-0.06-0.01-0.05-0.06-0.05-0.1c0.02,0,0.04,0,0.05,0
			C26.56,9.8,26.56,9.82,26.56,9.83z"/>
		<path class="st6" d="M16.56,21.88c0.07,0,0.14-0.01,0.21,0.02C16.7,21.9,16.63,21.93,16.56,21.88z"/>
		<path class="st6" d="M59.78,15.85c0.05,0.03,0.09,0.07,0.1,0.13C59.84,15.94,59.79,15.91,59.78,15.85z"/>
		<path class="st19" d="M33.8,9.65c0.02,0,0.04,0,0.06,0c0,0.03,0,0.05,0.01,0.08c0,0.01-0.01,0.02-0.01,0.03
			C33.79,9.75,33.81,9.69,33.8,9.65z"/>
		<path class="st6" d="M62.85,15.97c0.04-0.04,0.07-0.09,0.11-0.13C62.95,15.91,62.91,15.95,62.85,15.97z"/>
		<path class="st6" d="M22.97,6.42c0.06,0.01,0.1,0.05,0.13,0.1C23.03,6.52,23,6.47,22.97,6.42z"/>
		<path class="st6" d="M54.02,12.8c-0.06-0.02-0.1-0.06-0.14-0.1C53.96,12.7,54,12.75,54.02,12.8z"/>
		<path class="st6" d="M24.05,5.38C24,5.35,23.95,5.31,23.92,5.27C23.99,5.27,24.02,5.32,24.05,5.38z"/>
		<path class="st6" d="M9.96,12.77c0.03,0.07,0.02,0.14,0.02,0.21C9.93,12.91,9.96,12.84,9.96,12.77z"/>
		<path class="st6" d="M5.18,13.15c0.03,0.07,0.02,0.14,0.02,0.21C5.16,13.3,5.18,13.22,5.18,13.15z"/>
		<path class="st6" d="M9.32,5.75C9.36,5.71,9.4,5.67,9.44,5.62C9.43,5.69,9.38,5.73,9.32,5.75z"/>
		<path class="st20" d="M65.88,12.8c0.07,0.01,0.05,0.06,0.05,0.1C65.86,12.89,65.87,12.84,65.88,12.8z"/>
		<path class="st6" d="M20.25,16.44c0.04-0.05,0.08-0.09,0.13-0.11C20.36,16.38,20.32,16.43,20.25,16.44z"/>
		<path class="st6" d="M6.72,13.27C6.7,13.2,6.7,13.13,6.7,13.06C6.75,13.13,6.72,13.2,6.72,13.27z"/>
		<path class="st21" d="M28.03,13.03c0,0.02,0,0.04,0,0.05c0,0.02,0,0.03,0,0.05c-0.02,0-0.04,0-0.06,0
			C27.97,13.09,27.96,13.04,28.03,13.03z"/>
		<path class="st6" d="M20.38,21.54c0.06-0.03,0.12-0.05,0.19-0.05C20.51,21.54,20.45,21.55,20.38,21.54z"/>
		<path class="st6" d="M9.23,13.19c-0.03-0.06-0.02-0.12-0.02-0.19C9.25,13.07,9.22,13.13,9.23,13.19z"/>
		<path class="st6" d="M18.68,2.25c0.06,0,0.13-0.01,0.19,0.02C18.8,2.26,18.74,2.29,18.68,2.25z"/>
		<path class="st6" d="M13.23,5.67c0.03-0.04,0.08-0.07,0.13-0.08C13.34,5.66,13.29,5.67,13.23,5.67z"/>
		<path class="st6" d="M7.68,13.13c0.03,0.06,0.02,0.12,0.02,0.19C7.66,13.26,7.69,13.19,7.68,13.13z"/>
		<path class="st6" d="M54.13,12.91c-0.03-0.04-0.07-0.07-0.1-0.11C54.09,12.8,54.12,12.84,54.13,12.91z"/>
		<path class="st6" d="M21.81,5.62c0.05,0.01,0.1,0.04,0.13,0.08C21.88,5.7,21.83,5.68,21.81,5.62z"/>
		<path class="st6" d="M10.83,12.98c-0.03-0.06-0.02-0.12-0.02-0.18C10.85,12.86,10.82,12.92,10.83,12.98z"/>
		<path class="st6" d="M18.42,2.22c0.06,0,0.13-0.01,0.19,0.02C18.55,2.24,18.48,2.27,18.42,2.22z"/>
		<path class="st6" d="M16.3,21.86c0.06,0,0.13-0.01,0.19,0.02C16.43,21.87,16.36,21.9,16.3,21.86z"/>
		<path class="st6" d="M15.46,0.88c-0.06,0.03-0.12,0.03-0.18,0.03C15.33,0.85,15.39,0.89,15.46,0.88z"/>
		<path class="st6" d="M20.05,6.9c-0.05-0.02-0.1-0.04-0.14-0.08C19.97,6.82,20.02,6.83,20.05,6.9z"/>
		<path class="st6" d="M13.88,21.26c0.06,0,0.11,0.01,0.15,0.05C13.97,21.31,13.92,21.3,13.88,21.26z"/>
		<path class="st6" d="M13.09,5.75c0.04-0.04,0.08-0.07,0.14-0.08C13.21,5.74,13.15,5.75,13.09,5.75z"/>
		<path class="st6" d="M14.63,6.38c-0.05,0.03-0.1,0.05-0.16,0.05C14.51,6.38,14.57,6.37,14.63,6.38z"/>
		<path class="st6" d="M15.76,15.59c0.06,0,0.13-0.01,0.19,0.02C15.89,15.6,15.82,15.63,15.76,15.59z"/>
		<path class="st6" d="M18.62,21.88c0.06-0.03,0.12-0.03,0.19-0.02C18.75,21.9,18.68,21.87,18.62,21.88z"/>
		<path class="st6" d="M17.6,7.38c-0.06,0-0.13,0.01-0.18-0.03C17.47,7.36,17.54,7.33,17.6,7.38z"/>
		<path class="st6" d="M14.17,7.95c-0.04,0.04-0.08,0.07-0.13,0.07C14.06,7.97,14.11,7.95,14.17,7.95z"/>
		<path class="st6" d="M18.36,21.9c0.06-0.03,0.13-0.02,0.19-0.02C18.49,21.93,18.42,21.9,18.36,21.9z"/>
		<path class="st6" d="M16.1,7.36c-0.06,0.03-0.12,0.02-0.19,0.03C15.97,7.33,16.04,7.36,16.1,7.36z"/>
		<path class="st6" d="M13.46,22.04c-0.06,0-0.11-0.01-0.16-0.05C13.37,21.98,13.42,21.99,13.46,22.04z"/>
		<path class="st6" d="M17.49,6.91c0.06,0,0.13-0.01,0.18,0.03C17.61,6.93,17.55,6.97,17.49,6.91z"/>
		<path class="st6" d="M19.53,8.06c-0.05-0.02-0.1-0.04-0.14-0.08C19.45,7.98,19.51,7.99,19.53,8.06z"/>
		<path class="st6" d="M14.35,7.85c-0.04,0.04-0.08,0.07-0.14,0.07C14.25,7.87,14.29,7.85,14.35,7.85z"/>
		<path class="st6" d="M11.35,2.27c-0.03,0.04-0.08,0.06-0.13,0.08C11.24,2.3,11.29,2.28,11.35,2.27z"/>
		<path class="st6" d="M13.31,21.03c0.05,0.01,0.11,0.02,0.15,0.06C13.4,21.08,13.35,21.08,13.31,21.03z"/>
		<path class="st6" d="M10.81,12.2c0-0.06-0.01-0.13,0.02-0.18C10.82,12.08,10.85,12.15,10.81,12.2z"/>
		<path class="st6" d="M11.22,2.35c-0.03,0.04-0.08,0.06-0.13,0.08C11.12,2.37,11.17,2.36,11.22,2.35z"/>
		<path class="st22" d="M13.39,12.05c0-0.04-0.02-0.09,0.05-0.11C13.45,11.99,13.43,12.03,13.39,12.05z"/>
		<path class="st6" d="M15.64,0.85c-0.06,0.03-0.12,0.03-0.18,0.03C15.51,0.83,15.57,0.86,15.64,0.85z"/>
		<path class="st6" d="M59.45,9.96c0,0.06,0,0.12-0.03,0.18C59.43,10.08,59.4,10.02,59.45,9.96z"/>
		<path class="st6" d="M13.88,8.1c-0.03,0.04-0.07,0.07-0.13,0.08C13.78,8.13,13.82,8.11,13.88,8.1z"/>
		<path class="st6" d="M24.2,20.57c-0.03,0.05-0.06,0.09-0.13,0.08C24.11,20.61,24.15,20.57,24.2,20.57z"/>
		<path class="st6" d="M7.7,11.69c0,0.06,0.01,0.13-0.02,0.19C7.69,11.81,7.66,11.75,7.7,11.69z"/>
		<path class="st6" d="M14.42,14.59c-0.06,0-0.09-0.05-0.13-0.09C14.35,14.51,14.39,14.54,14.42,14.59z"/>
		<path class="st6" d="M20.46,7.13c-0.05-0.01-0.1-0.04-0.13-0.08C20.38,7.05,20.43,7.07,20.46,7.13z"/>
		<path class="st6" d="M15.92,7.38c-0.06,0.04-0.12,0.02-0.18,0.03C15.79,7.35,15.86,7.39,15.92,7.38z"/>
		<path class="st6" d="M15.97,14.58c-0.06,0-0.13,0-0.19-0.03C15.84,14.56,15.91,14.53,15.97,14.58z"/>
		<path class="st6" d="M63.32,10.14c-0.03-0.06-0.02-0.12-0.03-0.18C63.35,10.02,63.31,10.08,63.32,10.14z"/>
		<path class="st6" d="M16.56,20.41c-0.06,0-0.13,0-0.19-0.03C16.44,20.39,16.51,20.36,16.56,20.41z"/>
		<path class="st6" d="M17.73,14.81c-0.03,0.05-0.08,0.07-0.13,0.08C17.62,14.84,17.67,14.82,17.73,14.81z"/>
		<path class="st6" d="M15.82,0.83c-0.06,0.03-0.12,0.03-0.18,0.03C15.69,0.8,15.76,0.84,15.82,0.83z"/>
		<path class="st6" d="M16.36,20.39c-0.06,0-0.13,0.01-0.18-0.03C16.23,20.37,16.3,20.33,16.36,20.39z"/>
		<path class="st6" d="M23.33,21.16c-0.04,0.04-0.08,0.07-0.13,0.08C23.22,21.18,23.28,21.17,23.33,21.16z"/>
		<path class="st6" d="M43.03,13.85c0.02,0,0.03,0.01,0.05,0.01c0,0.02,0,0.05,0,0.07C43.02,13.93,43.03,13.89,43.03,13.85z"/>
		<path class="st6" d="M9.56,14.81c-0.04-0.01-0.05-0.04-0.05-0.08C9.57,14.74,9.57,14.78,9.56,14.81z"/>
		<path class="st6" d="M18.54,24.2c0.05-0.03,0.11-0.02,0.16-0.02C18.65,24.22,18.6,24.2,18.54,24.2z"/>
		<path class="st6" d="M16.7,14.56c-0.05,0.03-0.11,0.03-0.16,0.03C16.58,14.53,16.65,14.56,16.7,14.56z"/>
		<path class="st6" d="M17.74,14.55c0.02-0.04,0.07-0.04,0.11-0.06C17.84,14.55,17.79,14.56,17.74,14.55z"/>
		<path class="st6" d="M16.28,24.18c0.06,0,0.11-0.01,0.16,0.02C16.39,24.2,16.33,24.22,16.28,24.18z"/>
		<path class="st6" d="M22.78,23.12c0.04-0.03,0.08-0.06,0.13-0.05C22.88,23.11,22.84,23.12,22.78,23.12z"/>
		<path class="st6" d="M17.14,14.43c-0.04,0.03-0.08,0.05-0.14,0.05C17.04,14.43,17.08,14.42,17.14,14.43z"/>
		<path class="st6" d="M15.79,14.97c0.06,0,0.11,0,0.16,0.02C15.9,14.99,15.84,15.01,15.79,14.97z"/>
		<path class="st6" d="M13.59,22.09c-0.05,0-0.09-0.02-0.13-0.05C13.51,22.03,13.56,22.04,13.59,22.09z"/>
		<path class="st6" d="M17.87,14.47c0.04-0.03,0.07-0.06,0.11-0.09C17.97,14.44,17.93,14.47,17.87,14.47z"/>
		<path class="st6" d="M15.48,6.17c-0.05,0.04-0.1,0.02-0.16,0.03C15.37,6.15,15.43,6.18,15.48,6.17z"/>
		<path class="st6" d="M10.19,6.19c-0.01,0.05-0.04,0.08-0.08,0.1C10.11,6.24,10.15,6.21,10.19,6.19z"/>
		<path class="st6" d="M45.95,15.11c0.02,0,0.03,0.01,0.05,0.01c0,0.02,0,0.05,0,0.07C45.94,15.19,45.94,15.15,45.95,15.11z"/>
		<path class="st6" d="M14.47,14.34c0.05,0.01,0.08,0.04,0.1,0.08C14.52,14.42,14.49,14.39,14.47,14.34z"/>
		<path class="st6" d="M15.95,6.09c-0.05,0.03-0.11,0.02-0.16,0.02C15.84,6.07,15.9,6.1,15.95,6.09z"/>
		<path class="st6" d="M7.14,15.41c-0.04-0.01-0.06-0.04-0.05-0.08C7.14,15.33,7.14,15.37,7.14,15.41z"/>
		<path class="st6" d="M17.72,14.06c-0.02,0.04-0.05,0.07-0.1,0.08C17.64,14.1,17.67,14.07,17.72,14.06z"/>
		<path class="st6" d="M22.81,6.3c0.05,0.01,0.08,0.03,0.1,0.08C22.86,6.37,22.83,6.34,22.81,6.3z"/>
		<path class="st6" d="M12.02,6.53c0.03-0.03,0.07-0.06,0.1-0.09C12.11,6.49,12.07,6.53,12.02,6.53z"/>
		<path class="st6" d="M12.48,6.17c0.03-0.03,0.06-0.07,0.1-0.08C12.57,6.13,12.54,6.17,12.48,6.17z"/>
		<path class="st6" d="M17.67,6.94c0.05,0,0.11-0.01,0.16,0.03C17.78,6.96,17.72,6.99,17.67,6.94z"/>
		<path class="st6" d="M5.2,13.51c0.03,0.05,0.02,0.11,0.02,0.16C5.18,13.63,5.21,13.57,5.2,13.51z"/>
		<path class="st6" d="M15.32,7.02c0.05-0.03,0.1-0.02,0.16-0.03C15.43,7.04,15.37,7.01,15.32,7.02z"/>
		<path class="st6" d="M20.56,7.21c-0.04-0.02-0.08-0.04-0.1-0.08C20.52,7.12,20.55,7.16,20.56,7.21z"/>
		<path class="st6" d="M16.53,15.61c0.05-0.02,0.11-0.03,0.16-0.02C16.64,15.63,16.58,15.61,16.53,15.61z"/>
		<path class="st6" d="M10.05,13.4c0,0.02,0,0.05,0,0.07c-0.05,0-0.05-0.04-0.05-0.08C10.02,13.38,10.04,13.38,10.05,13.4z"/>
		<path class="st6" d="M6.75,13.56c-0.03-0.05-0.02-0.11-0.02-0.16C6.77,13.44,6.75,13.5,6.75,13.56z"/>
		<path class="st6" d="M11.99,15.85c-0.05,0-0.07-0.04-0.08-0.08C11.95,15.78,11.99,15.79,11.99,15.85z"/>
		<path class="st6" d="M62.96,15.84c0.01-0.05,0.05-0.05,0.08-0.08C63.04,15.82,63.01,15.84,62.96,15.84z"/>
		<path class="st6" d="M13.87,15.88c-0.04-0.02-0.08-0.05-0.1-0.09C13.83,15.79,13.86,15.83,13.87,15.88z"/>
		<path class="st6" d="M19.68,15.82c-0.02,0.04-0.05,0.07-0.1,0.08C19.61,15.86,19.63,15.82,19.68,15.82z"/>
		<path class="st23" d="M10.05,13.4c-0.02,0-0.03,0-0.05-0.01c0-0.03,0-0.05,0-0.08C10.06,13.32,10.06,13.36,10.05,13.4z"/>
		<path class="st6" d="M9.59,21.52c0.05,0.01,0.08,0.04,0.1,0.08C9.64,21.59,9.61,21.56,9.59,21.52z"/>
		<path class="st6" d="M20.87,7.41c-0.05-0.01-0.08-0.04-0.1-0.08C20.82,7.33,20.85,7.36,20.87,7.41z"/>
		<path class="st6" d="M14.03,15.98c-0.05-0.01-0.08-0.04-0.11-0.08C13.98,15.9,14.01,15.93,14.03,15.98z"/>
		<path class="st6" d="M14.13,16.06c-0.04-0.02-0.08-0.04-0.1-0.08C14.09,15.97,14.12,16.01,14.13,16.06z"/>
		<path class="st6" d="M17.75,7.41c-0.05,0-0.11,0.01-0.16-0.03C17.65,7.39,17.71,7.36,17.75,7.41z"/>
		<path class="st6" d="M14.11,21.34c0.05,0,0.09,0.01,0.13,0.05C14.19,21.39,14.14,21.38,14.11,21.34z"/>
		<path class="st6" d="M19.31,16.1c-0.03,0.04-0.06,0.05-0.11,0.05C19.22,16.1,19.26,16.1,19.31,16.1z"/>
		<path class="st6" d="M60.02,16.1c0.04,0.01,0.08,0.01,0.1,0.05C60.07,16.16,60.03,16.15,60.02,16.1z"/>
		<path class="st6" d="M12.33,16.26c-0.04-0.03-0.07-0.06-0.09-0.1C12.29,16.17,12.32,16.2,12.33,16.26z"/>
		<path class="st6" d="M17.9,7.44c-0.05-0.02-0.11,0-0.15-0.04C17.8,7.42,17.86,7.38,17.9,7.44z"/>
		<path class="st6" d="M49.03,16.23c0.03-0.03,0.07-0.06,0.11-0.08C49.12,16.2,49.09,16.23,49.03,16.23z"/>
		<path class="st6" d="M13.44,13.02c-0.05-0.01-0.05-0.05-0.04-0.09C13.45,12.94,13.44,12.98,13.44,13.02z"/>
		<path class="st6" d="M23.2,21.24c-0.02,0.04-0.06,0.05-0.11,0.05C23.12,21.24,23.16,21.23,23.2,21.24z"/>
		<path class="st6" d="M18.84,16.36c-0.04,0.04-0.09,0.05-0.14,0.05C18.74,16.38,18.79,16.37,18.84,16.36z"/>
		<path class="st6" d="M21.26,21.26c0.04-0.03,0.08-0.05,0.13-0.05C21.36,21.25,21.31,21.26,21.26,21.26z"/>
		<path class="st6" d="M13.62,12.66c0.02,0.05,0.02,0.11,0.02,0.16C13.6,12.78,13.63,12.72,13.62,12.66z"/>
		<path class="st6" d="M26.04,12.62c0.06,0,0.05,0.03,0.05,0.07C26.04,12.69,26.04,12.66,26.04,12.62z"/>
		<path class="st6" d="M13.75,21.21c0.05,0,0.09,0.02,0.13,0.05C13.83,21.27,13.78,21.25,13.75,21.21z"/>
		<path class="st6" d="M9.18,21.18c0.05,0.01,0.08,0.04,0.1,0.08C9.23,21.26,9.2,21.22,9.18,21.18z"/>
		<path class="st6" d="M42.54,12.12c0.05,0.01,0.05,0.05,0.05,0.09C42.53,12.2,42.54,12.16,42.54,12.12z"/>
		<path class="st6" d="M12.27,7.64c-0.02,0.04-0.05,0.07-0.1,0.08C12.19,7.68,12.22,7.64,12.27,7.64z"/>
		<path class="st6" d="M47.39,16.46c0.06,0,0.11-0.01,0.16,0.02C47.5,16.48,47.44,16.51,47.39,16.46z"/>
		<path class="st6" d="M48.18,16.49c0.05-0.03,0.11-0.03,0.16-0.02C48.3,16.51,48.24,16.48,48.18,16.49z"/>
		<path class="st6" d="M14.55,7.77c-0.04,0.03-0.08,0.05-0.13,0.05C14.45,7.78,14.5,7.77,14.55,7.77z"/>
		<path class="st6" d="M13.57,21.13c0.05,0,0.09,0.02,0.12,0.05C13.64,21.19,13.6,21.17,13.57,21.13z"/>
		<path class="st6" d="M20.07,16.57c0.02-0.04,0.06-0.07,0.1-0.09C20.16,16.53,20.13,16.56,20.07,16.57z"/>
		<path class="st6" d="M19.09,7.83C19.04,7.82,19,7.8,18.96,7.77C19.01,7.77,19.07,7.77,19.09,7.83z"/>
		<path class="st6" d="M23.66,20.95C23.64,21,23.6,21,23.56,21C23.58,20.96,23.62,20.95,23.66,20.95z"/>
		<path class="st6" d="M17.23,8.16c0.05,0,0.11-0.01,0.16,0.02C17.34,8.17,17.28,8.2,17.23,8.16z"/>
		<path class="st6" d="M20.02,8.36c-0.05-0.01-0.08-0.04-0.11-0.08C19.97,8.28,20,8.32,20.02,8.36z"/>
		<path class="st6" d="M19.51,0.88c-0.05,0-0.11,0-0.16-0.03C19.4,0.86,19.46,0.83,19.51,0.88z"/>
		<path class="st6" d="M11.58,8.31c-0.01,0.05-0.04,0.08-0.08,0.1C11.51,8.36,11.54,8.33,11.58,8.31z"/>
		<path class="st6" d="M24.33,20.46c-0.02,0.04-0.05,0.07-0.1,0.08C24.25,20.5,24.28,20.47,24.33,20.46z"/>
		<path class="st6" d="M17.26,17.62c0.05-0.03,0.1-0.02,0.16-0.02C17.36,17.64,17.31,17.62,17.26,17.62z"/>
		<path class="st6" d="M9.21,11.97c0-0.06-0.01-0.11,0.02-0.16C9.22,11.86,9.25,11.92,9.21,11.97z"/>
		<path class="st6" d="M13.57,8.31c-0.03,0.03-0.06,0.07-0.11,0.07C13.49,8.34,13.52,8.31,13.57,8.31z"/>
		<path class="st24" d="M10.05,11.61c0.01,0.04,0.01,0.07-0.04,0.08c0-0.03,0-0.05,0-0.08C10.02,11.6,10.03,11.6,10.05,11.61z"/>
		<path class="st6" d="M20.12,8.44c-0.05-0.01-0.08-0.04-0.1-0.08C20.08,8.36,20.1,8.4,20.12,8.44z"/>
		<path class="st6" d="M17.39,18.06c-0.05,0.03-0.1,0.02-0.16,0.02C17.28,18.04,17.34,18.07,17.39,18.06z"/>
		<path class="st6" d="M12.58,6.09c0.03-0.04,0.06-0.07,0.11-0.07C12.66,6.06,12.64,6.09,12.58,6.09z"/>
		<path class="st6" d="M10.05,11.61c-0.02,0-0.03,0-0.05,0.01c0-0.04,0-0.07,0.05-0.08C10.05,11.56,10.05,11.58,10.05,11.61z"/>
		<path class="st6" d="M6.73,11.59c0-0.06-0.01-0.11,0.02-0.16C6.75,11.48,6.77,11.53,6.73,11.59z"/>
		<path class="st6" d="M9.82,18.38c0.04,0.02,0.07,0.05,0.08,0.1C9.86,18.45,9.83,18.43,9.82,18.38z"/>
		<path class="st6" d="M7.73,11.41c0,0.05,0.01,0.11-0.02,0.16C7.71,11.51,7.69,11.46,7.73,11.41z"/>
		<path class="st6" d="M5.22,11.3c0,0.05,0.01,0.11-0.02,0.16C5.21,11.41,5.18,11.35,5.22,11.3z"/>
		<path class="st6" d="M25.55,11.01c0.04,0.01,0.06,0.04,0.05,0.08C25.54,11.09,25.55,11.05,25.55,11.01z"/>
		<path class="st6" d="M24.28,2.67c-0.04-0.02-0.08-0.04-0.11-0.08C24.23,2.58,24.26,2.62,24.28,2.67z"/>
		<path class="st6" d="M27.53,10.86c-0.02,0-0.03,0.01-0.05,0.01c0-0.04,0-0.08,0.05-0.08C27.53,10.81,27.53,10.83,27.53,10.86z"/>
		<path class="st6" d="M16.72,3.07c-0.05,0.03-0.11,0.02-0.16,0.02C16.61,3.05,16.67,3.08,16.72,3.07z"/>
		<path class="st6" d="M18.55,3.09c-0.05,0-0.11,0.01-0.16-0.02C18.44,3.08,18.5,3.05,18.55,3.09z"/>
		<path class="st6" d="M16.46,3.1c-0.05,0.03-0.1,0.02-0.16,0.02C16.35,3.08,16.41,3.1,16.46,3.1z"/>
		<path class="st6" d="M63.29,9.96c-0.01-0.05-0.03-0.1-0.04-0.15C63.33,9.85,63.28,9.91,63.29,9.96z"/>
		<path class="st6" d="M7.55,19.48c0.05,0,0.07,0.03,0.08,0.08C7.6,19.54,7.55,19.53,7.55,19.48z"/>
		<path class="st6" d="M59.48,9.81c0,0.06,0,0.11-0.03,0.16C59.46,9.91,59.42,9.85,59.48,9.81z"/>
		<path class="st6" d="M46,9.88c-0.02,0-0.03,0.01-0.05,0.01c0-0.04-0.01-0.08,0.05-0.09C46,9.83,46,9.86,46,9.88z"/>
		<path class="st6" d="M11.11,19.66c0.05,0.01,0.08,0.04,0.1,0.08C11.16,19.74,11.14,19.7,11.11,19.66z"/>
		<path class="st6" d="M11.27,19.79c0.05,0.01,0.08,0.03,0.1,0.08C11.32,19.87,11.29,19.83,11.27,19.79z"/>
		<path class="st6" d="M9.17,5.93C9.2,5.9,9.23,5.86,9.25,5.83C9.25,5.89,9.22,5.92,9.17,5.93z"/>
		<path class="st6" d="M23.87,5.22c-0.04-0.03-0.07-0.06-0.11-0.09C23.82,5.14,23.85,5.17,23.87,5.22z"/>
		<path class="st6" d="M18.81,3.12c-0.05,0-0.11,0.01-0.16-0.02C18.7,3.1,18.76,3.08,18.81,3.12z"/>
		<path class="st6" d="M23.74,5.12c-0.04-0.03-0.07-0.06-0.11-0.09C23.69,5.03,23.72,5.07,23.74,5.12z"/>
		<path class="st6" d="M46.67,8.8c-0.03,0.04-0.06,0.06-0.11,0.08C46.58,8.83,46.61,8.8,46.67,8.8z"/>
		<path class="st6" d="M10.34,20.22c-0.03-0.03-0.07-0.06-0.1-0.09C10.29,20.13,10.32,20.16,10.34,20.22z"/>
		<path class="st6" d="M25.31,3.39c-0.03-0.03-0.07-0.06-0.1-0.08C25.27,3.31,25.3,3.34,25.31,3.39z"/>
		<path class="st6" d="M18.94,20.36c-0.05,0.03-0.1,0.03-0.16,0.03C18.83,20.34,18.89,20.37,18.94,20.36z"/>
		<path class="st6" d="M25.47,3.52c-0.03-0.03-0.07-0.06-0.1-0.09C25.42,3.44,25.45,3.47,25.47,3.52z"/>
		<path class="st6" d="M46.33,9.08c-0.01,0.05-0.04,0.08-0.08,0.1C46.26,9.13,46.29,9.11,46.33,9.08z"/>
		<path class="st6" d="M10.64,4.54c0.04-0.03,0.07-0.06,0.11-0.09C10.74,4.51,10.7,4.54,10.64,4.54z"/>
		<path class="st6" d="M28.03,9.01c0.01,0.04,0,0.08-0.05,0.09C27.98,9.06,27.97,9.01,28.03,9.01z"/>
		<path class="st6" d="M19.38,20.28c-0.05,0.03-0.1,0.03-0.16,0.03C19.27,20.26,19.33,20.29,19.38,20.28z"/>
		<path class="st6" d="M12.69,9.06c-0.01,0.05-0.04,0.08-0.08,0.1C12.62,9.11,12.65,9.08,12.69,9.06z"/>
		<path class="st6" d="M24.48,20.33c-0.02,0.04-0.05,0.07-0.1,0.08C24.41,20.37,24.43,20.34,24.48,20.33z"/>
		<path class="st6" d="M19.1,20.34c-0.05,0.03-0.1,0.03-0.16,0.03C18.98,20.31,19.04,20.34,19.1,20.34z"/>
		<path class="st6" d="M16.17,20.36c-0.05,0-0.11,0-0.16-0.03C16.07,20.34,16.13,20.31,16.17,20.36z"/>
		<path class="st6" d="M19.22,20.31c-0.04,0.03-0.09,0.03-0.13,0.03C19.13,20.29,19.18,20.31,19.22,20.31z"/>
		<path class="st6" d="M16.02,20.34c-0.05,0-0.09,0-0.13-0.03C15.93,20.31,15.98,20.29,16.02,20.34z"/>
		<path class="st6" d="M11.94,20.28c0.05-0.01,0.08,0.01,0.1,0.05C12,20.33,11.97,20.31,11.94,20.28z"/>
		<path class="st6" d="M15.42,20.22c-0.04-0.01-0.09-0.01-0.13-0.04C15.34,20.19,15.39,20.15,15.42,20.22z"/>
		<path class="st6" d="M25.16,3.27c-0.03-0.02-0.07-0.04-0.1-0.06C25.1,3.2,25.15,3.2,25.16,3.27z"/>
		<path class="st6" d="M15.89,3.18C15.85,3.2,15.81,3.2,15.76,3.2C15.8,3.16,15.85,3.18,15.89,3.18z"/>
		<path class="st6" d="M15.86,9.78c0.04-0.02,0.09-0.02,0.13-0.02C15.95,9.8,15.91,9.78,15.86,9.78z"/>
		<path class="st6" d="M16.49,9.76c0.05,0,0.09,0,0.13,0.02C16.57,9.78,16.53,9.8,16.49,9.76z"/>
		<path class="st6" d="M12.83,5.91c0.03-0.03,0.06-0.07,0.11-0.05C12.92,5.89,12.88,5.91,12.83,5.91z"/>
		<path class="st6" d="M9.23,11.69c0-0.05-0.01-0.09,0.02-0.14C9.25,11.6,9.27,11.65,9.23,11.69z"/>
		<path class="st6" d="M13.43,8.41c-0.02,0.03-0.06,0.05-0.1,0.05C13.35,8.42,13.39,8.41,13.43,8.41z"/>
		<path class="st6" d="M16.17,18.08c-0.05,0-0.09,0.01-0.13-0.02C16.09,18.07,16.13,18.05,16.17,18.08z"/>
		<path class="st6" d="M10.83,11.89c0-0.05-0.01-0.09,0.02-0.13C10.85,11.81,10.87,11.86,10.83,11.89z"/>
		<path class="st6" d="M16.1,17.6c0.05,0,0.09-0.01,0.13,0.02C16.19,17.62,16.14,17.64,16.1,17.6z"/>
		<path class="st6" d="M11.37,11.87c0,0.05,0.01,0.09-0.02,0.13C11.35,11.96,11.33,11.91,11.37,11.87z"/>
		<path class="st6" d="M17.37,16.8c-0.04,0.03-0.09,0.02-0.13,0.02C17.28,16.78,17.32,16.8,17.37,16.8z"/>
		<path class="st6" d="M15.78,8.23c0.04-0.03,0.09-0.02,0.13-0.02C15.88,8.25,15.83,8.23,15.78,8.23z"/>
		<path class="st6" d="M8.74,20.78c0.03,0.01,0.06,0.04,0.07,0.07C8.77,20.85,8.74,20.82,8.74,20.78z"/>
		<path class="st6" d="M15.73,2.32c0.04-0.03,0.09-0.03,0.14-0.02C15.83,2.34,15.78,2.32,15.73,2.32z"/>
		<path class="st6" d="M16.12,8.18c0.04-0.03,0.09-0.02,0.13-0.02C16.21,8.2,16.16,8.18,16.12,8.18z"/>
		<path class="st6" d="M18.91,2.27c0.05,0,0.1-0.01,0.14,0.02C19,2.29,18.95,2.32,18.91,2.27z"/>
		<path class="st6" d="M13.99,8.05c-0.03,0.03-0.06,0.06-0.11,0.05C13.91,8.07,13.94,8.05,13.99,8.05z"/>
		<path class="st6" d="M11.55,21.09c-0.04-0.02-0.07-0.04-0.11-0.06C11.49,21.03,11.54,21.03,11.55,21.09z"/>
		<path class="st6" d="M13.37,12.26c0-0.05,0-0.09,0.02-0.13C13.38,12.17,13.4,12.22,13.37,12.26z"/>
		<path class="st6" d="M61.71,16.49c0.04-0.02,0.09-0.02,0.14-0.02C61.81,16.51,61.76,16.48,61.71,16.49z"/>
		<path class="st6" d="M60.89,16.46c0.05,0,0.1,0,0.14,0.02C60.99,16.48,60.93,16.51,60.89,16.46z"/>
		<path class="st6" d="M48.36,16.46c0.04-0.02,0.09-0.03,0.14-0.02C48.46,16.48,48.41,16.46,48.36,16.46z"/>
		<path class="st6" d="M17.62,6.11c-0.05,0-0.09,0.01-0.13-0.02C17.53,6.1,17.58,6.07,17.62,6.11z"/>
		<path class="st6" d="M13.64,12.18c0,0.05,0,0.09-0.02,0.14C13.62,12.27,13.6,12.22,13.64,12.18z"/>
		<path class="st6" d="M13.38,12.86c-0.03-0.04-0.02-0.09-0.02-0.14C13.4,12.76,13.38,12.81,13.38,12.86z"/>
		<path class="st6" d="M12.98,12.82C13,12.86,13,12.91,13,12.95C12.96,12.91,12.98,12.86,12.98,12.82z"/>
		<path class="st6" d="M19.66,7.62c0.04,0,0.08,0.01,0.1,0.05C19.72,7.67,19.68,7.66,19.66,7.62z"/>
		<path class="st6" d="M15.41,7.49c-0.04,0.03-0.09,0.03-0.13,0.03C15.31,7.47,15.36,7.49,15.41,7.49z"/>
		<path class="st6" d="M12.48,7.48c-0.03,0.03-0.06,0.05-0.1,0.05C12.4,7.49,12.43,7.48,12.48,7.48z"/>
		<path class="st6" d="M11.35,13c0.03,0.04,0.02,0.09,0.02,0.13C11.33,13.09,11.35,13.05,11.35,13z"/>
		<path class="st6" d="M9.98,13.13c0.03,0.04,0.02,0.09,0.02,0.13C9.96,13.22,9.98,13.17,9.98,13.13z"/>
		<path class="st6" d="M15.74,7.41c-0.04,0.03-0.09,0.03-0.13,0.03C15.64,7.39,15.69,7.41,15.74,7.41z"/>
		<path class="st6" d="M16.12,2.27c0.04-0.03,0.09-0.02,0.14-0.02C16.21,2.29,16.16,2.27,16.12,2.27z"/>
		<path class="st6" d="M52.55,13.26c0.05-0.01,0.09,0,0.13,0.03C52.64,13.28,52.59,13.31,52.55,13.26z"/>
		<path class="st6" d="M9.25,13.45c-0.03-0.04-0.02-0.09-0.02-0.13C9.27,13.36,9.25,13.41,9.25,13.45z"/>
		<path class="st6" d="M14.83,21.57c0.05,0,0.09,0,0.13,0.03C14.92,21.59,14.87,21.62,14.83,21.57z"/>
		<path class="st6" d="M20.18,21.6c0.04-0.03,0.08-0.03,0.13-0.02C20.27,21.61,20.22,21.59,20.18,21.6z"/>
		<path class="st6" d="M7.71,13.44c0.02,0.04,0.02,0.09,0.02,0.13C7.69,13.53,7.71,13.48,7.71,13.44z"/>
		<path class="st6" d="M17.96,6.99c0.04,0,0.09-0.01,0.13,0.03C18.04,7.01,17.99,7.04,17.96,6.99z"/>
		<path class="st6" d="M16.74,15.58c0.04-0.03,0.09-0.03,0.14-0.02C16.83,15.6,16.78,15.58,16.74,15.58z"/>
		<path class="st6" d="M15.48,6.99c0.04-0.03,0.09-0.03,0.13-0.03C15.57,7.01,15.52,6.99,15.48,6.99z"/>
		<path class="st6" d="M15.14,21.64c0.05,0,0.09,0,0.13,0.03C15.23,21.67,15.18,21.7,15.14,21.64z"/>
		<path class="st6" d="M15.27,21.67c0.05,0,0.09,0,0.13,0.03C15.36,21.7,15.31,21.72,15.27,21.67z"/>
		<path class="st6" d="M6.78,13.79c-0.03-0.04-0.02-0.09-0.02-0.13C6.79,13.69,6.77,13.74,6.78,13.79z"/>
		<path class="st6" d="M15.61,6.97c0.04-0.03,0.09-0.02,0.13-0.03C15.7,6.99,15.65,6.96,15.61,6.97z"/>
		<path class="st6" d="M5.23,13.77c0.03,0.04,0.02,0.09,0.02,0.13C5.21,13.87,5.23,13.82,5.23,13.77z"/>
		<path class="st25" d="M25.06,21.78c0-0.05,0.04-0.05,0.08-0.05C25.12,21.76,25.09,21.78,25.06,21.78z"/>
		<path class="st6" d="M15.79,21.78c0.05,0,0.09-0.01,0.13,0.02C15.88,21.8,15.83,21.82,15.79,21.78z"/>
		<path class="st6" d="M19.21,21.8c0.04-0.02,0.09-0.02,0.14-0.02C19.31,21.82,19.26,21.8,19.21,21.8z"/>
		<path class="st6" d="M15.94,21.8c0.05,0,0.09,0,0.13,0.02C16.03,21.82,15.98,21.85,15.94,21.8z"/>
		<path class="st6" d="M16.12,21.83c0.05,0,0.09,0,0.13,0.02C16.21,21.85,16.16,21.87,16.12,21.83z"/>
		<path class="st6" d="M53.18,13.83c0.02,0.04,0.03,0.09,0.02,0.13C53.16,13.92,53.18,13.87,53.18,13.83z"/>
		<path class="st6" d="M15.17,14.78c0.05,0,0.08,0.02,0.11,0.05C15.23,14.84,15.2,14.82,15.17,14.78z"/>
		<path class="st6" d="M14.99,6.27C14.95,6.3,14.91,6.3,14.86,6.3C14.9,6.25,14.95,6.28,14.99,6.27z"/>
		<path class="st6" d="M18.34,6.25c-0.04-0.02-0.09,0-0.13-0.03C18.26,6.23,18.31,6.2,18.34,6.25z"/>
		<path class="st6" d="M14.96,14.2c-0.03-0.02-0.07-0.04-0.1-0.06C14.9,14.14,14.95,14.14,14.96,14.2z"/>
		<path class="st6" d="M15.32,6.19c-0.04,0.03-0.09,0.03-0.13,0.03C15.23,6.18,15.28,6.2,15.32,6.19z"/>
		<path class="st6" d="M63.26,15.2c0-0.05,0-0.09,0.03-0.13C63.29,15.11,63.32,15.16,63.26,15.2z"/>
		<path class="st6" d="M59.45,15.07c0.03,0.04,0.03,0.09,0.03,0.13C59.43,15.16,59.45,15.11,59.45,15.07z"/>
		<path class="st6" d="M16.58,14.99c0.04-0.02,0.09-0.03,0.14-0.02C16.68,15.01,16.63,14.99,16.58,14.99z"/>
		<path class="st6" d="M24.51,22.16c0.03-0.03,0.06-0.06,0.11-0.05C24.59,22.15,24.55,22.16,24.51,22.16z"/>
		<path class="st6" d="M24.02,22.47c0.03-0.03,0.06-0.06,0.11-0.05C24.1,22.46,24.06,22.47,24.02,22.47z"/>
		<path class="st6" d="M17.96,6.17c-0.05,0-0.09,0.01-0.13-0.03C17.87,6.15,17.92,6.12,17.96,6.17z"/>
		<path class="st6" d="M16.74,14.96c0.04-0.03,0.09-0.03,0.14-0.02C16.83,14.98,16.78,14.96,16.74,14.96z"/>
		<path class="st6" d="M16.02,24.16c0.05,0,0.09-0.01,0.13,0.02C16.11,24.17,16.06,24.19,16.02,24.16z"/>
		<path class="st6" d="M18.83,24.18c0.04-0.03,0.09-0.02,0.13-0.02C18.92,24.19,18.87,24.17,18.83,24.18z"/>
		<path class="st6" d="M16.93,14.5c-0.04,0.02-0.09,0.04-0.14,0.03C16.83,14.48,16.88,14.51,16.93,14.5z"/>
		<path class="st6" d="M14.86,14.63c0.05-0.01,0.08,0.01,0.1,0.05C14.92,14.68,14.89,14.66,14.86,14.63z"/>
		<path class="st6" d="M15.61,6.14c-0.04,0.03-0.09,0.02-0.13,0.03C15.51,6.12,15.56,6.15,15.61,6.14z"/>
		<path class="st6" d="M17.83,6.14c-0.05,0-0.09,0.01-0.14-0.03C17.74,6.12,17.79,6.1,17.83,6.14z"/>
		<path class="st6" d="M15.74,6.12c-0.04,0.03-0.09,0.03-0.13,0.03C15.64,6.1,15.7,6.12,15.74,6.12z"/>
		<path class="st1" d="M31.22,12.49c0-0.9,0-1.8,0-2.7c0-0.1,0.02-0.14,0.13-0.13c0.22,0.01,0.44,0,0.66,0.01
			c0.39,0.01,0.55,0.17,0.6,0.55c0.01,0.09,0.02,0.19,0.02,0.28c0,1.33,0,2.66,0,3.99c0,0.13-0.01,0.25-0.03,0.37
			c-0.06,0.29-0.23,0.45-0.52,0.46c-0.25,0.01-0.51,0-0.76,0.01c-0.11,0-0.09-0.07-0.09-0.13c0-0.61,0-1.23,0-1.84
			C31.22,13.07,31.22,12.78,31.22,12.49z"/>
		<path class="st1" d="M51.95,10.92c0-0.37,0-0.73,0-1.1c0-0.09,0.03-0.12,0.12-0.12c0.18,0.01,0.37,0,0.55,0.01
			c0.38,0.03,0.52,0.15,0.56,0.52c0.05,0.45,0.05,0.91-0.01,1.36c-0.04,0.29-0.2,0.44-0.48,0.49c-0.22,0.04-0.45,0.02-0.67,0.03
			c-0.08,0-0.07-0.06-0.07-0.11C51.95,11.65,51.95,11.29,51.95,10.92z"/>
		<path class="st1" d="M61.98,14.99c-0.11,0.36-0.42,0.44-0.8,0.37c-0.25-0.04-0.38-0.21-0.44-0.45c-0.03-0.12-0.03-0.25-0.03-0.37
			c0-1.36,0-2.72,0-4.08c0-0.17,0.01-0.34,0.07-0.49c0.06-0.15,0.16-0.25,0.31-0.3c0.14-0.04,0.29-0.05,0.43-0.03
			c0.23,0.03,0.37,0.16,0.45,0.38C62,10.03,62,10.05,62,10.08c0,0.03-0.01,0.07,0.03,0.09c0.03,0.1,0.02,0.2,0.02,0.31
			c0,1.35,0,2.71,0,4.06c0,0.11,0,0.22-0.02,0.33C61.99,14.89,62.02,14.96,61.98,14.99z"/>
		<path class="st26" d="M61.98,14.99c0.01-0.05-0.03-0.11,0.05-0.13C62.03,14.91,62.05,14.97,61.98,14.99z"/>
		<path class="st27" d="M62.03,10.17c-0.06,0-0.06-0.04-0.05-0.08c0.02-0.01,0.03-0.01,0.05,0C62.03,10.12,62.03,10.14,62.03,10.17z
			"/>
		<path class="st28" d="M62.03,10.09c-0.02,0-0.03,0-0.05,0c0-0.02,0-0.05,0-0.07C62.03,10.01,62.03,10.05,62.03,10.09z"/>
		<path class="st1" d="M48.55,12.51c0,0.67,0,1.34,0,2.01c0,0.14-0.01,0.27-0.04,0.41c-0.05,0.24-0.21,0.38-0.44,0.44
			c-0.29,0.07-0.62-0.02-0.75-0.22c-0.07-0.11-0.1-0.23-0.11-0.35c0-0.03,0-0.06,0-0.09c0-1.47,0-2.95,0-4.42c0-0.02,0-0.04,0-0.06
			c0.03-0.26,0.12-0.47,0.39-0.55c0.27-0.08,0.53-0.07,0.76,0.14c0.12,0.12,0.15,0.26,0.17,0.41c0.03,0.24,0.01,0.48,0.01,0.72
			C48.55,11.47,48.55,11.99,48.55,12.51z"/>
	</g>
</g>
</svg>
